<?xml version="1.0" encoding="UTF-8"?><svg xmlns="http://www.w3.org/2000/svg" xmlns:xlink="http://www.w3.org/1999/xlink" width="1440" zoomAndPan="magnify" viewBox="0 0 1440 809.999993" height="809.999993" preserveAspectRatio="xMidYMid meet" version="1.0"><defs><clipPath id="clip-0"><path d="M 0 767 L 1440 767 L 1440 809.832031 L 0 809.832031 Z M 0 767 " clip-rule="nonzero"/></clipPath></defs><path fill="rgb(98.039246%, 98.039246%, 98.039246%)" d="M 1033.929688 772.882812 L 1033.929688 773.441406 L 1019.925781 772.324219 Z M 1044.007812 756.648438 L 1042.890625 758.328125 L 1040.089844 760.007812 L 1042.328125 760.007812 L 1041.769531 761.125 L 1036.167969 758.328125 L 1036.726562 762.804688 L 1037.289062 762.804688 L 1030.566406 763.367188 L 1027.765625 760.007812 L 1019.925781 763.367188 Z M 1047.371094 754.410156 L 1046.808594 753.847656 L 1047.371094 753.289062 Z M 1057.453125 761.125 L 1050.730469 762.246094 L 1052.410156 759.445312 Z M 1072.015625 772.882812 L 1072.574219 772.882812 L 1069.773438 772.882812 Z M 1049.050781 771.203125 Z M 1045.128906 765.605469 L 1046.25 766.722656 L 1042.328125 765.605469 Z M 1058.011719 761.125 Z M 1044.570312 754.96875 L 1044.570312 755.527344 L 1044.007812 754.96875 L 1044.007812 755.527344 L 1042.890625 754.96875 Z M 1041.769531 761.125 L 1042.890625 760.007812 L 1045.691406 762.246094 L 1044.570312 762.246094 Z M 1034.488281 773.441406 L 1034.488281 772.882812 L 1040.089844 771.203125 L 1041.210938 771.203125 L 1042.328125 773.441406 Z M 977.359375 724.738281 L 974 723.058594 Z M 977.917969 733.136719 L 975.117188 733.136719 L 977.359375 732.574219 Z M 990.800781 738.171875 L 990.242188 738.171875 L 999.761719 739.292969 L 979.601562 742.652344 L 974.558594 739.851562 Z M 1012.644531 742.09375 L 998.644531 745.449219 L 1008.164062 748.25 L 989.679688 744.332031 Z M 991.921875 758.886719 L 1003.125 760.566406 L 996.402344 762.246094 L 998.644531 761.6875 L 991.363281 759.445312 Z M 991.363281 751.609375 L 993.042969 751.050781 L 991.921875 752.167969 Z M 996.960938 747.128906 L 1000.882812 747.691406 Z M 996.960938 748.25 L 995.84375 748.25 L 1005.921875 753.289062 L 993.601562 751.050781 L 996.402344 750.488281 L 982.960938 747.128906 Z M 991.921875 762.804688 L 991.363281 762.246094 L 994.160156 761.6875 L 993.601562 762.804688 Z M 939.832031 752.730469 L 927.511719 754.410156 L 939.832031 756.085938 L 938.152344 757.207031 L 926.390625 754.96875 Z M 935.914062 744.332031 L 941.515625 743.773438 L 937.59375 748.25 L 928.632812 744.890625 Z M 947.113281 740.414062 L 948.796875 742.09375 L 937.03125 743.773438 Z M 951.035156 747.691406 L 948.234375 748.25 L 945.433594 748.25 Z M 952.15625 739.851562 L 956.074219 739.851562 L 951.59375 740.972656 Z M 937.59375 767.84375 L 940.394531 768.402344 L 937.03125 768.402344 Z M 943.753906 757.765625 L 941.515625 760.007812 L 939.832031 758.886719 L 940.953125 758.328125 Z M 948.234375 757.207031 L 943.753906 758.886719 L 944.875 757.207031 Z M 952.15625 747.128906 L 955.515625 748.25 Z M 943.753906 750.488281 L 940.953125 749.371094 L 947.675781 749.929688 L 951.59375 752.167969 L 940.953125 752.730469 Z M 928.632812 768.402344 L 927.511719 768.402344 L 942.632812 763.367188 L 943.195312 764.484375 L 931.433594 766.164062 L 936.472656 766.164062 Z M 927.511719 768.402344 L 928.070312 768.402344 L 928.070312 768.964844 Z M 895.585938 770.082031 L 895.027344 768.964844 L 896.148438 770.082031 Z M 886.066406 761.6875 L 887.746094 763.367188 Z M 883.824219 743.773438 L 882.703125 746.570312 L 875.984375 742.09375 L 882.144531 744.332031 Z M 885.503906 742.09375 L 884.945312 742.652344 L 884.386719 741.53125 Z M 870.382812 723.058594 L 870.941406 723.617188 L 868.703125 723.617188 Z M 867.582031 710.183594 L 869.824219 712.980469 Z M 850.78125 742.09375 L 854.140625 744.332031 Z M 847.417969 743.773438 L 850.21875 742.652344 Z M 847.417969 743.773438 L 845.738281 743.773438 Z M 850.21875 732.574219 L 853.582031 733.136719 L 849.101562 733.695312 Z M 845.738281 758.328125 L 846.300781 754.96875 L 846.300781 755.527344 L 848.539062 754.96875 Z M 841.820312 766.164062 L 839.578125 765.605469 L 842.9375 763.925781 L 842.378906 763.925781 L 846.300781 765.605469 Z M 841.257812 770.082031 L 841.257812 769.523438 L 844.617188 769.523438 Z M 835.65625 776.800781 L 832.855469 776.242188 L 836.777344 775.121094 Z M 830.617188 771.761719 L 831.738281 771.203125 L 835.097656 770.644531 Z M 829.496094 770.644531 L 830.058594 771.203125 Z M 835.097656 772.324219 L 835.65625 770.644531 L 840.136719 772.324219 Z M 835.097656 768.402344 L 840.136719 766.722656 L 837.339844 767.84375 L 841.257812 767.84375 L 834.539062 768.964844 Z M 844.617188 756.085938 L 845.738281 756.085938 L 843.5 759.445312 Z M 696.195312 742.652344 L 696.757812 742.652344 L 701.238281 746.011719 L 676.59375 744.890625 Z M 693.394531 729.214844 L 691.714844 730.335938 L 711.878906 733.695312 L 702.917969 734.8125 L 703.476562 734.253906 L 686.675781 735.375 L 683.875 732.574219 L 676.59375 735.375 Z M 737.082031 715.78125 L 735.402344 716.898438 L 756.125 719.699219 L 726.441406 718.578125 Z M 747.722656 701.785156 L 764.527344 700.664062 L 750.523438 704.582031 L 761.167969 706.824219 L 748.84375 706.261719 L 748.285156 707.941406 L 758.367188 711.863281 L 745.484375 709.621094 L 742.125 711.300781 L 729.800781 706.824219 Z M 751.644531 698.984375 L 749.964844 698.984375 L 748.285156 698.425781 Z M 791.972656 728.65625 L 798.691406 729.214844 L 801.492188 732.015625 L 772.367188 731.457031 Z M 816.613281 737.613281 L 813.8125 735.933594 L 813.8125 735.375 Z M 816.613281 744.332031 L 814.375 744.332031 L 816.613281 743.773438 Z M 785.25 761.125 L 787.492188 758.886719 L 790.289062 759.445312 L 793.652344 761.6875 Z M 790.289062 751.609375 L 791.410156 751.609375 L 781.890625 753.289062 Z M 790.851562 738.171875 L 794.210938 738.734375 L 778.527344 739.851562 Z M 791.410156 733.136719 L 790.289062 732.574219 L 791.410156 732.574219 Z M 799.8125 724.738281 L 802.613281 726.417969 L 794.769531 724.738281 Z M 790.851562 758.328125 L 792.53125 758.328125 Z M 794.210938 750.488281 L 797.570312 750.488281 L 793.652344 751.609375 Z M 803.734375 736.492188 L 798.691406 737.054688 L 797.011719 735.375 Z M 779.089844 757.207031 L 780.210938 754.410156 L 785.25 754.410156 L 781.328125 757.207031 Z M 797.011719 758.328125 L 794.769531 758.328125 Z M 741.003906 770.644531 L 735.960938 770.644531 Z M 683.875 752.730469 L 692.835938 751.609375 Z M 683.3125 769.523438 L 690.035156 770.082031 L 683.3125 770.644531 Z M 706.839844 765.605469 L 683.3125 769.523438 L 690.59375 766.164062 L 690.035156 766.164062 L 709.078125 764.484375 Z M 735.402344 732.574219 L 728.679688 735.375 L 741.5625 729.214844 L 749.40625 734.8125 L 738.761719 735.375 Z M 734.28125 753.289062 L 734.84375 753.289062 L 753.324219 751.050781 L 753.324219 751.609375 Z M 733.160156 744.890625 L 732.042969 745.449219 L 728.121094 744.890625 Z M 700.675781 748.25 L 704.597656 747.691406 L 709.078125 749.929688 L 702.355469 749.929688 Z M 696.195312 771.761719 L 690.59375 772.882812 Z M 753.324219 773.441406 L 743.804688 772.882812 L 750.523438 771.761719 Z M 642.429688 767.84375 L 638.507812 767.285156 L 656.992188 764.484375 Z M 631.785156 773.441406 L 634.027344 775.121094 L 616.105469 773.441406 Z M 635.148438 753.289062 Z M 637.386719 758.328125 L 640.1875 758.328125 L 631.785156 763.925781 L 636.828125 763.367188 L 626.746094 763.925781 L 623.945312 761.125 L 616.105469 763.925781 Z M 638.507812 755.527344 L 640.1875 754.96875 L 639.066406 755.527344 Z M 644.109375 771.761719 L 635.148438 772.882812 L 635.707031 771.203125 L 642.988281 771.203125 Z M 632.90625 743.773438 L 635.707031 742.09375 L 617.222656 735.375 L 641.308594 728.65625 L 637.949219 727.535156 L 640.1875 730.335938 L 659.789062 733.695312 L 631.785156 737.613281 L 641.867188 738.171875 L 657.550781 749.929688 L 631.226562 752.730469 L 614.425781 747.128906 Z M 604.34375 748.808594 L 593.140625 748.25 L 592.582031 749.929688 L 602.101562 753.847656 L 589.21875 752.167969 L 589.21875 752.730469 L 584.738281 749.371094 L 567.375 753.847656 L 584.738281 748.808594 L 579.136719 747.128906 L 590.339844 745.449219 L 588.101562 744.332031 L 588.101562 743.773438 L 608.824219 743.210938 L 594.820312 747.128906 Z M 577.457031 754.410156 L 578.578125 754.96875 L 575.21875 757.207031 L 581.9375 757.765625 L 571.296875 756.648438 Z M 588.101562 753.289062 L 589.21875 753.289062 Z M 591.460938 763.367188 L 589.78125 763.367188 L 599.300781 762.246094 Z M 586.417969 759.445312 L 588.660156 760.566406 L 584.738281 760.566406 Z M 531.53125 774.5625 L 528.171875 772.882812 L 529.289062 772.882812 L 518.089844 772.882812 L 515.847656 771.203125 L 511.367188 772.882812 L 524.808594 768.964844 L 529.289062 770.082031 L 528.171875 772.324219 L 546.652344 773.441406 Z M 493.445312 765.046875 L 484.484375 766.164062 L 486.722656 767.285156 L 486.164062 767.84375 L 474.960938 766.722656 L 475.523438 764.484375 L 473.28125 765.605469 L 496.246094 763.925781 L 501.847656 766.722656 Z M 462.082031 743.773438 Z M 455.917969 743.210938 Z M 462.082031 741.53125 L 463.199219 742.652344 L 458.71875 743.210938 L 457.039062 742.09375 Z M 456.480469 739.851562 L 457.039062 738.171875 Z M 464.320312 738.734375 Z M 460.398438 740.972656 L 459.839844 740.972656 Z M 472.722656 765.605469 L 471.042969 765.046875 L 471.601562 766.164062 L 471.042969 766.164062 L 471.042969 765.046875 Z M 474.402344 767.84375 L 472.722656 767.285156 L 474.402344 767.285156 Z M 867.023438 679.390625 L 867.023438 679.953125 Z M 874.304688 724.175781 L 872.625 723.058594 Z M 1083.777344 765.046875 L 1081.535156 764.484375 L 1082.09375 764.484375 Z M 1050.171875 775.121094 L 1057.453125 776.242188 L 1057.453125 773.441406 L 1080.414062 776.242188 L 1072.015625 772.324219 L 1077.613281 772.882812 L 1074.253906 770.082031 L 1085.457031 771.761719 L 1079.296875 772.882812 L 1084.335938 774.5625 L 1086.574219 771.203125 L 1062.492188 770.082031 L 1069.773438 767.285156 L 1056.332031 765.605469 L 1082.65625 765.605469 L 1086.574219 761.6875 L 1086.574219 760.566406 L 1082.09375 762.246094 L 1084.335938 762.246094 L 1073.132812 761.125 L 1073.132812 762.246094 L 1069.773438 760.007812 L 1067.53125 759.445312 L 1068.652344 758.328125 L 1055.210938 753.847656 L 1078.734375 756.648438 L 1065.851562 752.730469 L 1069.773438 752.730469 L 1068.652344 749.371094 L 1080.976562 755.527344 L 1082.65625 753.289062 L 1086.574219 754.96875 L 1086.574219 751.609375 L 1079.855469 751.050781 L 1079.855469 750.488281 L 1074.253906 748.25 L 1070.332031 749.371094 L 1072.015625 747.691406 L 1063.613281 742.652344 L 1077.054688 740.972656 L 1075.933594 740.414062 L 1073.132812 740.414062 L 1074.253906 739.292969 L 1073.695312 739.292969 L 1079.855469 737.613281 L 1078.734375 736.492188 L 1068.652344 738.734375 L 1081.535156 732.574219 L 1069.773438 734.253906 L 1072.574219 726.976562 L 1066.972656 734.8125 L 1069.214844 720.820312 L 1064.171875 730.335938 L 1060.253906 728.65625 L 1046.25 729.214844 L 1060.8125 738.734375 L 1049.609375 733.695312 L 1055.769531 738.734375 L 1041.210938 739.292969 L 1059.132812 748.25 L 1039.527344 744.332031 L 1058.570312 752.167969 L 1048.492188 754.96875 L 1049.050781 749.929688 L 1034.488281 751.050781 L 1018.246094 746.011719 L 1036.167969 743.210938 L 1039.527344 740.414062 L 1021.046875 733.695312 L 1045.128906 728.097656 L 1016.003906 727.535156 L 1036.726562 716.339844 L 1018.804688 716.898438 L 1031.128906 714.101562 L 1024.964844 713.542969 L 1035.609375 709.0625 L 1037.289062 706.261719 L 1019.925781 712.421875 L 1026.648438 704.023438 L 1022.726562 705.144531 L 1022.726562 702.34375 L 1018.246094 706.261719 L 1015.445312 695.625 L 1012.644531 705.703125 L 1008.164062 700.664062 L 1003.683594 708.503906 L 1010.40625 711.863281 L 997.523438 706.261719 L 998.644531 712.421875 L 1014.324219 721.378906 L 999.203125 718.578125 L 1007.042969 728.65625 L 994.160156 727.535156 L 1009.84375 736.492188 L 991.363281 738.171875 L 989.679688 735.933594 L 995.84375 733.695312 L 983.519531 734.253906 L 982.398438 733.136719 L 982.398438 733.695312 L 980.71875 732.574219 L 982.398438 732.574219 L 984.640625 728.65625 L 987.441406 726.976562 L 986.878906 726.417969 L 986.878906 718.019531 L 991.921875 718.019531 L 973.4375 714.660156 L 982.398438 710.183594 L 969.519531 710.183594 L 980.160156 708.503906 L 975.117188 707.941406 L 984.082031 704.582031 L 985.761719 702.90625 L 972.878906 702.34375 L 970.636719 703.464844 L 970.078125 699.546875 L 967.277344 702.34375 L 966.71875 695.625 L 958.316406 700.664062 L 959.4375 702.90625 L 956.636719 704.023438 L 962.796875 706.824219 L 951.59375 703.464844 L 952.714844 707.382812 L 962.796875 714.101562 L 953.277344 711.300781 L 959.4375 719.140625 L 942.074219 719.699219 L 948.796875 719.140625 L 947.113281 723.617188 L 962.796875 723.617188 L 948.796875 725.296875 L 958.316406 728.65625 L 952.714844 730.335938 L 954.394531 731.457031 L 950.476562 732.574219 L 953.835938 733.695312 L 936.472656 734.8125 L 938.714844 735.933594 L 935.914062 737.613281 L 942.074219 737.613281 L 936.472656 739.851562 L 924.710938 739.851562 L 941.515625 730.894531 L 926.953125 731.457031 L 937.03125 728.65625 L 932.550781 728.097656 L 940.953125 724.175781 L 942.074219 722.5 L 927.511719 727.535156 L 933.671875 720.257812 L 930.871094 721.9375 L 929.753906 719.140625 L 926.390625 722.5 L 924.152344 714.101562 L 921.910156 721.9375 L 918.550781 718.019531 L 914.628906 723.617188 L 920.230469 726.976562 L 909.589844 722.5 L 910.148438 727.535156 L 923.03125 734.8125 L 910.710938 732.574219 L 917.429688 740.972656 L 906.789062 739.851562 L 920.230469 747.128906 L 903.988281 748.25 L 910.710938 749.929688 L 902.867188 752.730469 L 921.910156 751.609375 L 910.148438 754.410156 L 918.550781 756.648438 L 908.46875 756.085938 L 908.46875 757.207031 L 916.871094 760.566406 L 894.464844 760.007812 L 896.707031 761.6875 L 893.90625 763.367188 L 914.628906 767.285156 L 898.386719 769.523438 L 896.148438 766.722656 L 900.066406 767.285156 L 892.226562 762.246094 L 891.667969 761.125 L 885.503906 758.328125 L 890.546875 758.328125 L 896.707031 756.085938 L 894.464844 754.96875 L 897.265625 753.289062 L 882.144531 752.167969 L 887.746094 747.128906 L 886.625 742.652344 L 888.867188 743.773438 L 891.105469 742.652344 L 881.023438 738.171875 L 887.746094 737.613281 L 868.703125 734.253906 L 883.824219 730.335938 L 880.464844 728.097656 L 884.945312 723.617188 L 874.863281 725.296875 L 875.984375 718.019531 L 877.664062 715.78125 L 877.105469 704.023438 L 882.144531 704.023438 L 867.023438 699.546875 L 874.863281 693.945312 L 864.222656 694.507812 L 873.183594 691.148438 L 870.941406 689.46875 L 877.105469 686.667969 L 878.222656 684.429688 L 865.902344 689.46875 L 867.023438 680.511719 L 867.582031 681.632812 L 867.023438 679.953125 L 867.023438 679.390625 L 867.582031 679.953125 L 863.101562 667.636719 L 861.980469 682.191406 L 859.179688 679.390625 L 855.261719 685.550781 L 859.179688 689.46875 L 850.78125 684.429688 L 850.78125 689.46875 L 858.0625 698.984375 L 850.78125 695.066406 L 855.261719 704.582031 L 846.300781 705.144531 L 844.058594 709.0625 L 847.980469 707.941406 L 845.738281 710.183594 L 857.5 711.863281 L 845.738281 713.542969 L 854.699219 717.460938 L 850.78125 723.617188 L 836.777344 726.417969 L 836.777344 729.214844 L 846.859375 735.933594 L 835.097656 738.171875 L 841.820312 738.734375 L 851.339844 748.808594 L 831.738281 752.167969 L 839.019531 753.289062 L 839.019531 752.730469 L 841.820312 753.847656 L 842.378906 756.648438 L 837.898438 762.246094 L 843.5 762.804688 L 842.378906 763.925781 L 826.136719 763.367188 L 830.058594 762.246094 L 828.9375 760.566406 L 832.855469 760.007812 L 821.65625 757.207031 L 835.65625 758.328125 L 833.976562 757.207031 L 837.339844 757.207031 L 827.257812 754.410156 L 830.617188 752.730469 L 818.296875 753.289062 L 813.8125 750.488281 L 830.058594 748.808594 L 827.257812 747.691406 L 832.296875 744.890625 L 821.65625 745.449219 L 821.09375 744.332031 L 821.09375 744.890625 L 819.414062 743.773438 L 820.535156 743.773438 L 822.777344 740.414062 L 825.574219 739.292969 L 817.734375 734.253906 L 823.894531 733.136719 L 824.457031 731.457031 L 828.9375 731.457031 L 812.695312 728.65625 L 821.09375 724.738281 L 809.894531 724.738281 L 818.855469 723.058594 L 814.375 722.5 L 822.214844 719.699219 L 823.894531 718.578125 L 810.453125 721.9375 L 813.253906 716.898438 L 810.453125 719.140625 L 809.894531 715.21875 L 807.09375 711.863281 L 799.8125 716.339844 L 800.371094 718.578125 L 798.132812 719.140625 L 803.734375 721.9375 L 793.652344 718.578125 L 798.691406 720.820312 L 782.449219 721.9375 L 779.648438 719.140625 L 772.367188 721.9375 L 798.691406 715.78125 L 794.769531 712.980469 L 802.050781 709.0625 L 787.492188 710.183594 L 770.6875 704.582031 L 789.171875 701.785156 L 791.972656 699.546875 L 773.488281 693.386719 L 797.570312 686.667969 L 769.007812 686.667969 L 789.171875 674.914062 L 771.246094 676.03125 L 783.570312 672.671875 L 777.410156 672.113281 L 788.609375 667.636719 L 790.289062 664.835938 L 772.367188 670.996094 L 779.089844 662.597656 L 775.167969 664.835938 L 775.167969 661.476562 L 770.6875 664.835938 L 767.328125 654.757812 L 765.085938 664.835938 L 761.167969 659.796875 L 756.125 667.074219 L 762.847656 670.433594 L 749.40625 665.394531 L 750.523438 670.996094 L 766.207031 679.953125 L 751.644531 677.710938 L 759.484375 687.789062 L 746.605469 686.109375 L 762.847656 695.066406 L 744.363281 696.746094 L 738.761719 700.105469 L 724.761719 700.105469 L 744.921875 688.910156 L 727 689.46875 L 739.882812 686.109375 L 733.160156 685.550781 L 744.363281 681.070312 L 746.042969 678.832031 L 728.121094 684.429688 L 734.84375 676.03125 L 731.480469 678.273438 L 730.921875 674.914062 L 726.441406 678.832031 L 723.640625 668.195312 L 721.398438 678.273438 L 716.917969 673.792969 L 712.4375 680.511719 L 718.601562 684.429688 L 706.277344 679.390625 L 706.839844 684.429688 L 722.519531 693.945312 L 707.957031 691.148438 L 715.238281 701.226562 L 702.355469 699.546875 L 718.601562 709.0625 L 698.996094 710.742188 L 707.957031 712.421875 L 697.316406 715.78125 L 720.839844 714.101562 L 706.839844 718.578125 L 716.917969 720.257812 L 705.15625 719.140625 L 704.597656 721.378906 L 714.117188 725.296875 L 706.277344 724.738281 L 706.277344 722.5 L 702.355469 723.617188 L 701.796875 723.617188 L 674.914062 718.578125 L 693.394531 715.21875 L 696.195312 713.542969 L 677.714844 706.824219 L 701.238281 700.105469 L 672.671875 700.105469 L 693.394531 688.910156 L 675.472656 689.46875 L 687.234375 686.109375 L 681.632812 685.550781 L 692.277344 681.070312 L 693.957031 678.832031 L 676.59375 684.429688 L 683.3125 676.03125 L 679.394531 678.273438 L 679.394531 674.914062 L 674.914062 678.832031 L 672.113281 668.195312 L 668.753906 678.273438 L 664.832031 673.792969 L 660.351562 680.511719 L 667.070312 684.429688 L 653.628906 679.390625 L 654.75 684.429688 L 670.433594 693.945312 L 655.871094 691.148438 L 663.710938 701.226562 L 650.828125 699.546875 L 667.070312 709.0625 L 646.910156 710.742188 L 656.429688 712.421875 L 645.230469 715.78125 L 668.753906 714.101562 L 654.75 718.578125 L 664.832031 720.257812 L 653.070312 719.140625 L 652.507812 721.378906 L 662.589844 725.296875 L 635.707031 724.738281 L 638.507812 726.417969 L 612.183594 728.65625 L 632.90625 717.460938 L 614.984375 718.578125 L 627.304688 714.660156 L 621.144531 714.101562 L 631.785156 710.183594 L 633.464844 707.382812 L 616.105469 713.542969 L 622.824219 704.582031 L 618.90625 706.824219 L 618.90625 704.023438 L 614.425781 707.382812 L 611.625 696.746094 L 608.824219 706.824219 L 604.34375 702.34375 L 599.863281 709.0625 L 606.582031 712.980469 L 593.699219 707.941406 L 594.820312 713.542969 L 610.503906 722.5 L 595.382812 719.699219 L 603.222656 729.777344 L 590.339844 728.65625 L 606.582031 737.613281 L 586.980469 739.292969 L 595.941406 740.972656 L 567.375 743.210938 L 580.257812 740.972656 L 579.136719 739.292969 L 583.058594 738.734375 L 581.9375 738.171875 L 562.894531 737.054688 L 584.738281 737.054688 L 585.859375 735.375 L 578.019531 733.136719 L 580.820312 730.335938 L 569.617188 730.894531 L 567.9375 728.65625 L 562.894531 730.894531 L 580.257812 726.976562 L 578.019531 724.738281 L 581.9375 722.5 L 572.417969 723.617188 L 561.777344 719.699219 L 573.539062 718.019531 L 576.339844 716.339844 L 564.015625 712.421875 L 579.699219 707.941406 L 560.65625 707.941406 L 573.539062 700.664062 L 562.335938 700.664062 L 570.175781 698.984375 L 566.257812 698.425781 L 572.976562 695.625 L 574.097656 693.945312 L 562.894531 697.867188 L 567.375 692.269531 L 565.136719 693.386719 L 565.136719 691.148438 L 561.777344 693.945312 L 560.09375 687.230469 L 557.855469 693.945312 L 555.613281 690.027344 L 552.253906 695.066406 L 556.734375 697.867188 L 548.332031 694.507812 L 548.894531 697.867188 L 559.535156 704.023438 L 549.453125 701.785156 L 554.496094 709.0625 L 546.652344 707.941406 L 556.734375 714.101562 L 543.851562 714.660156 L 549.453125 715.78125 L 542.734375 718.019531 L 557.855469 717.460938 L 548.894531 719.699219 L 555.054688 720.820312 L 547.773438 720.257812 L 547.214844 721.378906 L 553.933594 724.175781 L 536.011719 723.617188 L 538.253906 724.738281 L 536.011719 726.417969 L 552.253906 729.214844 L 533.773438 732.574219 L 539.933594 732.574219 L 550.574219 740.414062 L 529.851562 742.652344 L 536.011719 743.773438 L 536.011719 743.210938 L 538.8125 743.773438 L 538.8125 745.449219 L 533.773438 749.371094 L 538.8125 749.929688 L 537.691406 751.050781 L 550.015625 749.929688 L 532.652344 753.289062 L 541.613281 754.410156 L 530.410156 754.410156 L 537.132812 757.765625 L 528.730469 758.886719 L 535.453125 759.445312 L 530.410156 760.007812 L 534.332031 762.246094 L 529.851562 763.367188 L 530.410156 763.925781 L 550.015625 765.046875 L 532.089844 764.484375 L 533.210938 766.722656 L 527.050781 768.402344 L 525.371094 767.285156 L 530.410156 764.484375 L 520.890625 765.605469 L 509.6875 762.246094 L 522.007812 760.007812 L 523.691406 758.328125 L 511.929688 754.410156 L 527.609375 749.929688 L 508.566406 749.929688 L 522.007812 743.210938 L 510.808594 743.210938 L 518.648438 740.972656 L 514.730469 740.972656 L 521.449219 738.171875 L 522.570312 735.933594 L 511.367188 739.851562 L 515.847656 734.253906 L 513.046875 735.375 L 513.046875 733.695312 L 509.6875 735.933594 L 508.007812 729.214844 L 506.328125 735.933594 L 503.527344 733.136719 L 500.726562 737.613281 L 504.648438 739.851562 L 496.804688 736.492188 L 497.367188 739.851562 L 506.886719 746.011719 L 497.925781 743.773438 L 502.96875 751.050781 L 494.566406 749.929688 L 504.648438 756.085938 L 491.765625 757.207031 L 497.925781 758.328125 L 490.644531 760.007812 L 506.328125 759.445312 L 497.367188 762.246094 L 503.527344 763.367188 L 496.246094 763.367188 L 481.125 761.125 L 487.285156 758.886719 L 484.484375 758.328125 L 500.167969 754.410156 L 481.125 756.648438 L 491.203125 751.609375 L 471.601562 754.410156 L 482.242188 748.25 L 468.800781 748.25 L 493.445312 746.570312 L 474.402344 746.011719 L 476.644531 743.773438 L 494.566406 743.773438 L 486.722656 738.734375 L 469.921875 744.332031 L 482.804688 737.613281 L 471.042969 739.292969 L 473.84375 732.015625 L 468.242188 740.414062 L 470.480469 726.417969 L 465.441406 737.613281 L 463.761719 738.734375 L 460.960938 733.695312 L 457.601562 737.613281 L 460.960938 734.253906 L 458.160156 735.375 L 458.160156 733.695312 L 455.359375 735.933594 L 453.679688 729.214844 L 452 735.933594 L 449.199219 733.136719 L 449.199219 735.375 L 447.519531 734.253906 L 449.199219 735.933594 L 446.398438 737.613281 L 450.878906 739.292969 L 450.878906 738.734375 L 450.878906 739.292969 L 450.320312 739.851562 L 441.917969 736.492188 L 442.476562 739.851562 L 451.4375 743.773438 L 443.039062 743.773438 L 443.039062 744.332031 L 442.476562 744.890625 L 443.039062 744.890625 L 448.636719 751.050781 L 440.796875 749.371094 L 443.039062 751.609375 L 439.675781 749.929688 L 447.519531 754.96875 L 447.519531 753.847656 L 451.4375 758.328125 L 450.878906 745.449219 L 446.398438 744.890625 L 451.4375 744.890625 L 453.679688 741.53125 L 454.800781 748.808594 L 457.601562 746.570312 L 460.960938 751.609375 L 454.800781 749.929688 L 454.800781 761.6875 L 464.882812 754.410156 L 455.917969 767.285156 L 464.320312 762.246094 L 455.359375 773.441406 L 463.761719 770.644531 L 459.839844 773.441406 L 467.679688 774.003906 L 463.199219 776.800781 L 478.324219 776.800781 L 476.082031 776.242188 L 474.960938 775.121094 L 474.960938 773.441406 L 481.125 772.882812 L 478.882812 771.203125 L 491.765625 771.203125 L 482.804688 770.082031 L 488.40625 768.964844 L 487.285156 770.082031 L 500.167969 771.761719 L 482.242188 774.5625 L 488.40625 774.5625 L 488.964844 776.800781 L 589.78125 776.800781 L 572.976562 776.800781 L 573.539062 774.5625 L 588.101562 774.5625 L 588.101562 774.003906 L 592.582031 776.800781 L 898.949219 776.242188 L 891.105469 768.964844 L 892.785156 770.644531 L 891.105469 770.644531 L 898.949219 771.203125 L 904.546875 776.800781 L 928.070312 776.800781 L 927.511719 776.800781 L 1050.171875 776.800781 L 1050.171875 775.121094 " fill-opacity="1" fill-rule="nonzero"/><path fill="rgb(98.039246%, 98.039246%, 98.039246%)" d="M 1352.617188 658.679688 L 1347.015625 662.597656 L 1355.417969 662.035156 L 1323.492188 660.917969 Z M 1324.050781 644.683594 L 1376.140625 635.164062 L 1352.058594 639.644531 L 1354.855469 640.765625 L 1324.050781 654.757812 Z M 1395.742188 646.921875 L 1391.824219 641.882812 L 1437.191406 647.480469 L 1372.78125 655.320312 L 1378.378906 659.238281 L 1354.296875 658.679688 L 1355.417969 658.117188 L 1353.175781 657 L 1374.460938 649.160156 L 1336.933594 653.640625 L 1383.980469 641.882812 L 1376.140625 649.160156 Z M 1425.429688 624.527344 L 1423.746094 627.328125 L 1437.75 623.410156 L 1429.347656 630.128906 Z M 1376.140625 776.242188 L 1372.21875 775.121094 L 1372.78125 774.5625 L 1383.980469 775.121094 Z M 1310.050781 775.683594 L 1317.332031 770.082031 L 1315.652344 776.242188 Z M 1300.527344 774.5625 L 1310.050781 772.324219 L 1303.328125 774.5625 Z M 1290.445312 772.882812 L 1299.96875 768.964844 L 1293.246094 773.441406 Z M 1198.03125 768.964844 L 1210.355469 765.605469 Z M 1185.152344 773.441406 L 1159.386719 770.082031 L 1159.949219 771.761719 L 1146.503906 771.761719 L 1158.828125 769.523438 L 1158.828125 768.402344 L 1144.265625 770.082031 L 1144.265625 765.046875 L 1152.105469 768.964844 L 1146.503906 764.484375 L 1168.347656 765.046875 L 1165.546875 763.367188 L 1176.191406 761.6875 L 1172.828125 762.804688 L 1170.027344 765.046875 L 1169.46875 766.164062 L 1183.472656 763.367188 L 1181.789062 763.367188 L 1178.988281 768.402344 L 1194.671875 763.367188 L 1181.789062 768.964844 L 1212.035156 763.367188 L 1185.710938 770.644531 L 1196.914062 772.882812 Z M 1159.386719 773.441406 L 1159.949219 773.441406 Z M 1144.265625 774.003906 L 1149.867188 773.441406 Z M 1143.703125 776.242188 L 1143.703125 775.683594 L 1144.265625 776.242188 Z M 1122.421875 771.761719 L 1099.457031 770.082031 L 1100.019531 771.761719 L 1116.820312 773.441406 L 1107.300781 775.121094 L 1109.539062 774.003906 L 1089.9375 775.683594 L 1089.9375 769.523438 L 1096.65625 771.761719 L 1098.898438 770.644531 L 1093.855469 768.402344 L 1111.21875 768.964844 L 1108.417969 768.402344 L 1115.140625 767.285156 L 1112.339844 768.964844 L 1139.222656 767.285156 L 1139.222656 769.523438 L 1130.824219 770.082031 L 1131.382812 770.644531 Z M 1093.855469 768.402344 L 1092.175781 768.402344 Z M 1117.378906 764.484375 L 1116.820312 764.484375 Z M 1106.738281 765.046875 L 1110.101562 764.484375 L 1103.378906 766.164062 Z M 1102.257812 767.84375 L 1111.21875 766.164062 L 1108.417969 768.402344 Z M 1089.9375 759.445312 L 1102.820312 760.007812 L 1098.898438 758.328125 L 1114.582031 753.289062 L 1122.980469 753.289062 L 1115.699219 756.648438 L 1138.664062 756.085938 L 1139.785156 757.765625 L 1138.664062 759.445312 L 1136.984375 761.125 L 1125.78125 758.328125 L 1133.0625 762.804688 L 1111.21875 759.445312 L 1111.21875 762.804688 L 1103.378906 761.6875 L 1104.5 763.367188 L 1089.9375 765.046875 Z M 1101.699219 756.085938 L 1111.78125 752.167969 L 1113.460938 752.730469 L 1094.417969 758.328125 Z M 1108.980469 746.011719 L 1113.460938 743.773438 L 1121.863281 744.890625 L 1120.742188 746.011719 L 1138.105469 746.011719 L 1139.785156 747.691406 L 1138.105469 751.609375 L 1112.339844 751.050781 L 1112.339844 750.488281 L 1103.9375 753.847656 L 1105.617188 751.609375 L 1097.777344 754.96875 L 1089.375 753.289062 L 1100.578125 752.730469 L 1100.578125 751.609375 L 1096.097656 749.929688 Z M 1147.066406 754.410156 L 1145.386719 754.410156 Z M 1143.703125 760.007812 L 1143.703125 756.085938 L 1152.105469 757.207031 L 1147.066406 754.410156 L 1163.867188 755.527344 L 1156.027344 756.085938 L 1154.347656 757.765625 L 1160.507812 759.445312 L 1161.066406 759.445312 L 1153.226562 761.125 L 1143.703125 762.246094 Z M 1161.066406 761.6875 L 1162.746094 760.566406 L 1164.429688 760.566406 Z M 1157.707031 753.289062 L 1173.390625 750.488281 L 1167.226562 753.847656 L 1184.03125 748.25 L 1180.671875 751.050781 L 1180.671875 753.289062 L 1197.472656 747.128906 L 1193.550781 752.167969 L 1218.195312 744.890625 L 1208.113281 753.289062 L 1226.597656 744.332031 L 1217.636719 752.167969 L 1234.4375 747.128906 L 1217.074219 754.410156 L 1183.472656 753.847656 L 1185.152344 755.527344 L 1163.867188 755.527344 L 1164.429688 755.527344 L 1155.464844 753.847656 Z M 1192.992188 746.570312 L 1191.3125 747.128906 Z M 1223.796875 718.578125 L 1229.957031 715.21875 L 1232.757812 716.898438 Z M 1208.675781 714.101562 L 1201.394531 714.101562 L 1211.476562 710.183594 L 1210.355469 712.980469 L 1226.597656 704.023438 Z M 1241.160156 695.066406 L 1235 692.269531 L 1239.480469 696.746094 L 1222.675781 698.425781 Z M 1230.519531 685.550781 L 1240.039062 679.390625 L 1240.601562 686.667969 Z M 1271.40625 653.078125 L 1282.605469 650.28125 L 1303.890625 657 L 1297.167969 659.238281 L 1317.332031 657.558594 L 1317.332031 667.636719 L 1282.046875 663.15625 L 1285.964844 662.035156 L 1250.679688 662.597656 Z M 1287.085938 648.601562 L 1311.171875 655.320312 L 1286.527344 649.160156 Z M 1314.53125 672.113281 L 1315.089844 672.113281 Z M 1317.332031 676.03125 L 1317.332031 684.429688 L 1302.769531 682.75 L 1302.210938 682.75 L 1286.527344 682.191406 L 1288.765625 683.871094 L 1275.886719 679.390625 L 1294.929688 674.914062 L 1283.726562 676.59375 L 1285.964844 674.351562 L 1311.730469 672.671875 L 1303.890625 676.03125 L 1305.007812 677.710938 L 1308.929688 678.273438 L 1317.332031 674.914062 Z M 1411.984375 766.722656 L 1385.660156 768.402344 L 1396.863281 762.804688 L 1400.222656 762.804688 L 1401.34375 765.046875 L 1419.265625 760.007812 Z M 1339.175781 758.328125 L 1331.894531 761.125 L 1327.972656 758.328125 Z M 1302.210938 762.246094 L 1299.410156 761.6875 L 1315.089844 758.886719 Z M 1284.847656 772.882812 L 1281.484375 771.761719 L 1289.886719 768.964844 Z M 1232.199219 766.722656 L 1217.074219 766.164062 Z M 1257.960938 735.933594 L 1258.523438 735.933594 L 1266.363281 734.8125 L 1268.042969 738.734375 L 1267.484375 738.734375 L 1257.402344 735.933594 Z M 1239.480469 714.660156 L 1238.917969 714.101562 L 1240.601562 715.21875 L 1241.71875 720.820312 L 1241.71875 721.378906 L 1241.160156 721.9375 L 1231.636719 721.378906 Z M 1241.160156 709.0625 L 1224.355469 712.421875 L 1241.160156 708.503906 Z M 1247.320312 704.023438 L 1255.160156 706.824219 L 1256.84375 706.824219 L 1256.84375 705.144531 L 1255.722656 704.023438 L 1260.203125 706.824219 L 1258.523438 708.503906 L 1252.363281 709.0625 L 1247.320312 704.582031 Z M 1268.042969 688.910156 L 1246.199219 686.109375 L 1266.363281 683.308594 L 1281.484375 687.230469 Z M 1346.457031 692.828125 L 1324.050781 697.304688 L 1333.015625 689.46875 Z M 1395.742188 733.136719 L 1378.378906 729.777344 L 1399.664062 728.65625 L 1417.027344 725.855469 L 1439.988281 732.574219 L 1437.191406 735.375 Z M 1403.023438 760.007812 L 1402.464844 760.566406 Z M 1405.265625 759.445312 L 1403.585938 760.007812 Z M 1401.34375 761.125 L 1402.464844 760.566406 Z M 1304.449219 753.289062 L 1310.050781 753.289062 L 1307.25 753.847656 Z M 1250.121094 760.007812 L 1261.324219 763.925781 L 1255.722656 765.046875 Z M 1231.636719 760.566406 L 1238.359375 762.246094 L 1241.160156 766.164062 L 1232.199219 763.367188 Z M 1241.71875 749.371094 Z M 1280.925781 738.734375 L 1284.285156 737.613281 L 1289.886719 738.734375 L 1289.886719 739.851562 L 1299.96875 742.09375 L 1302.769531 739.851562 L 1298.847656 738.734375 L 1303.890625 738.734375 L 1302.769531 739.851562 L 1303.890625 738.734375 L 1299.96875 742.09375 L 1305.007812 743.210938 L 1273.644531 740.414062 Z M 1274.203125 734.8125 L 1275.886719 735.375 L 1273.644531 735.933594 L 1273.085938 734.8125 Z M 1247.878906 721.378906 L 1248.441406 719.140625 L 1265.242188 718.578125 L 1260.203125 720.257812 L 1276.445312 719.140625 L 1275.324219 720.820312 L 1283.726562 720.820312 L 1254.601562 725.855469 L 1247.878906 722.5 Z M 1340.855469 698.425781 L 1338.054688 698.425781 Z M 1355.417969 719.699219 L 1347.574219 720.820312 L 1339.175781 718.019531 L 1358.777344 719.699219 Z M 1283.726562 761.6875 L 1283.167969 761.6875 L 1289.886719 761.6875 Z M 1274.765625 762.804688 L 1275.324219 762.804688 L 1271.964844 762.804688 Z M 1305.570312 732.574219 L 1308.371094 734.8125 L 1306.691406 736.492188 L 1300.527344 734.8125 Z M 1296.046875 733.695312 L 1298.847656 733.695312 L 1296.609375 734.253906 Z M 1288.765625 712.421875 L 1290.445312 712.421875 Z M 1292.6875 709.0625 L 1292.6875 709.621094 L 1291.007812 709.0625 L 1293.808594 708.503906 Z M 1317.332031 706.824219 L 1318.453125 707.941406 L 1310.609375 704.023438 L 1315.652344 710.183594 L 1298.289062 709.621094 L 1302.769531 706.261719 L 1306.128906 705.703125 L 1305.570312 704.582031 Z M 1337.496094 721.378906 L 1335.8125 719.140625 L 1339.734375 721.378906 Z M 1359.898438 741.53125 L 1373.339844 739.851562 L 1376.140625 742.09375 L 1376.140625 739.851562 L 1390.140625 740.414062 L 1351.496094 743.773438 L 1359.898438 739.851562 L 1362.136719 739.292969 Z M 1297.167969 729.214844 L 1304.449219 722.5 L 1314.53125 724.738281 Z M 1292.128906 729.777344 L 1292.6875 729.214844 L 1291.566406 729.777344 L 1294.367188 728.65625 Z M 1281.484375 726.976562 L 1280.925781 726.976562 Z M 1287.085938 729.777344 L 1289.328125 728.65625 L 1288.207031 729.777344 Z M 1291.007812 723.617188 L 1297.167969 720.257812 L 1297.726562 720.820312 L 1291.007812 727.535156 L 1284.847656 726.976562 Z M 1297.726562 720.257812 L 1298.289062 720.257812 L 1297.167969 720.257812 Z M 1316.210938 718.578125 L 1315.652344 722.5 L 1312.289062 722.5 L 1315.652344 723.058594 L 1314.53125 724.738281 L 1312.289062 722.5 L 1308.371094 719.699219 Z M 1330.773438 721.9375 L 1326.292969 722.5 L 1325.171875 720.257812 L 1325.734375 719.140625 L 1332.453125 721.9375 Z M 1339.175781 741.53125 L 1354.296875 738.734375 Z M 1338.613281 733.695312 L 1339.175781 734.8125 L 1333.015625 734.8125 Z M 1326.292969 740.414062 L 1326.292969 739.292969 L 1332.453125 738.734375 L 1326.292969 742.09375 Z M 1352.058594 700.105469 Z M 1345.335938 706.261719 L 1338.054688 704.023438 L 1352.058594 704.023438 Z M 1360.457031 689.46875 L 1362.136719 689.46875 Z M 1324.050781 704.023438 L 1341.976562 708.503906 L 1338.613281 711.300781 L 1340.855469 712.421875 L 1324.613281 705.703125 Z M 1307.808594 739.292969 L 1308.929688 739.292969 L 1308.929688 738.734375 L 1315.089844 732.015625 L 1317.332031 732.574219 L 1319.011719 734.253906 L 1316.769531 741.53125 L 1316.210938 741.53125 L 1306.128906 740.414062 Z M 1294.929688 751.609375 L 1292.6875 751.050781 L 1297.167969 750.488281 Z M 1400.785156 703.464844 L 1381.742188 710.742188 L 1343.65625 712.421875 L 1383.421875 701.785156 L 1384.542969 702.34375 L 1375.019531 706.261719 Z M 1328.53125 683.308594 L 1327.972656 683.308594 L 1326.292969 682.75 Z M 1293.246094 697.304688 L 1313.410156 700.105469 L 1273.085938 699.546875 Z M 1258.523438 702.90625 L 1278.125 704.582031 L 1268.605469 706.824219 Z M 1259.082031 709.0625 L 1283.167969 708.503906 Z M 1270.84375 737.054688 Z M 1346.457031 765.046875 L 1338.054688 763.367188 L 1350.9375 760.007812 L 1351.496094 761.125 L 1347.574219 765.605469 Z M 1348.695312 765.605469 L 1369.980469 760.007812 L 1383.421875 763.367188 L 1377.261719 768.402344 Z M 1409.183594 770.082031 L 1408.066406 771.761719 L 1404.144531 772.324219 L 1397.421875 770.644531 Z M 1416.464844 705.703125 L 1433.269531 700.105469 L 1423.746094 707.382812 L 1357.097656 714.101562 L 1381.742188 711.300781 Z M 1312.851562 688.910156 L 1303.328125 696.1875 L 1316.769531 689.46875 L 1316.769531 697.867188 L 1292.6875 695.066406 L 1292.6875 696.1875 L 1250.679688 697.304688 L 1246.199219 691.707031 L 1266.921875 696.746094 L 1257.402344 691.148438 Z M 1278.125 668.753906 L 1276.445312 667.074219 L 1296.609375 670.996094 L 1284.847656 673.234375 L 1284.285156 672.671875 L 1278.683594 675.472656 L 1254.601562 676.59375 L 1264.683594 670.996094 L 1249 674.351562 L 1246.199219 669.875 Z M 1279.246094 663.714844 L 1296.046875 668.753906 L 1271.40625 664.835938 L 1267.484375 664.835938 Z M 1233.878906 750.488281 L 1241.160156 745.449219 L 1241.160156 747.128906 L 1238.359375 747.691406 L 1237.800781 748.25 L 1238.359375 748.25 L 1241.160156 749.371094 L 1231.078125 753.289062 Z M 1456.234375 730.894531 L 1448.390625 730.894531 Z M 1358.777344 673.234375 L 1354.296875 671.554688 L 1361.019531 670.433594 Z M 1358.21875 662.035156 L 1369.980469 664.277344 L 1361.019531 664.835938 Z M 1324.050781 677.710938 L 1361.019531 676.59375 L 1363.257812 675.472656 L 1360.457031 674.351562 L 1400.785156 664.835938 L 1397.984375 667.074219 L 1399.105469 669.316406 L 1399.664062 669.316406 L 1403.585938 668.753906 L 1403.023438 670.433594 L 1403.023438 671.554688 L 1410.867188 663.15625 L 1413.667969 662.597656 L 1420.945312 667.636719 L 1418.148438 660.359375 L 1433.828125 660.917969 L 1342.535156 682.75 L 1339.734375 684.988281 L 1334.695312 685.550781 L 1349.816406 681.070312 L 1344.214844 680.511719 L 1347.015625 678.832031 L 1325.171875 679.390625 Z M 1457.351562 499.6875 L 1457.351562 500.246094 Z M 1315.652344 589.257812 L 1319.011719 598.777344 L 1311.730469 592.058594 L 1312.851562 597.65625 L 1307.808594 595.417969 L 1319.570312 611.652344 L 1307.808594 604.375 L 1307.808594 606.054688 L 1304.449219 605.496094 L 1316.769531 616.132812 L 1319.011719 626.769531 L 1298.847656 619.492188 L 1318.453125 640.203125 L 1290.445312 628.449219 L 1293.808594 634.605469 L 1278.125 629.566406 L 1308.371094 642.441406 L 1299.96875 645.800781 L 1319.570312 648.042969 L 1292.6875 644.683594 L 1294.367188 649.160156 L 1280.925781 643.5625 L 1284.285156 646.921875 L 1281.484375 647.480469 L 1278.125 645.800781 L 1279.246094 648.042969 L 1256.84375 650.28125 L 1273.644531 644.683594 L 1268.042969 644.683594 L 1270.285156 640.765625 L 1254.601562 644.121094 L 1246.199219 651.960938 L 1276.445312 631.246094 L 1250.679688 639.085938 L 1258.523438 633.484375 L 1246.199219 637.964844 L 1261.324219 627.886719 L 1252.921875 626.207031 L 1257.402344 622.289062 L 1246.761719 626.207031 L 1258.523438 610.53125 L 1247.320312 617.8125 L 1259.082031 601.015625 L 1246.199219 610.53125 L 1248.441406 600.457031 L 1247.320312 600.457031 L 1246.199219 602.695312 L 1245.082031 600.457031 L 1245.640625 582.542969 L 1241.71875 606.054688 L 1239.480469 601.574219 L 1235.558594 600.457031 L 1235.558594 602.695312 L 1236.679688 605.496094 L 1232.199219 603.253906 L 1242.28125 616.691406 L 1232.757812 610.53125 L 1232.757812 611.652344 L 1233.878906 612.773438 L 1232.757812 612.210938 L 1235 613.890625 L 1233.878906 612.773438 L 1242.28125 629.007812 L 1225.476562 622.847656 L 1241.160156 639.644531 L 1218.195312 630.128906 L 1221.558594 635.164062 L 1209.234375 630.6875 L 1232.757812 641.324219 L 1226.597656 644.683594 L 1241.71875 649.160156 L 1220.4375 644.121094 L 1222.675781 646.363281 L 1211.476562 642.441406 L 1235.558594 651.960938 L 1209.234375 644.683594 L 1229.398438 653.640625 L 1224.355469 654.757812 L 1241.160156 654.199219 L 1208.113281 657 L 1223.796875 663.15625 L 1202.515625 659.796875 L 1223.796875 664.835938 L 1213.15625 667.074219 L 1231.636719 665.957031 L 1229.398438 669.316406 L 1241.160156 675.472656 L 1215.394531 673.792969 L 1215.957031 674.351562 L 1199.152344 673.792969 L 1210.355469 678.273438 L 1208.113281 679.953125 L 1236.679688 679.390625 L 1228.835938 684.988281 L 1229.398438 685.550781 L 1220.4375 684.429688 L 1237.800781 688.347656 L 1209.234375 688.347656 L 1219.875 691.148438 L 1201.953125 693.386719 L 1199.714844 694.507812 L 1213.15625 694.507812 L 1208.113281 697.867188 L 1221.558594 695.066406 L 1220.4375 698.425781 L 1182.910156 702.34375 L 1180.671875 704.582031 L 1198.03125 703.464844 L 1194.113281 704.582031 L 1215.394531 704.023438 L 1177.308594 712.980469 L 1186.832031 715.78125 L 1182.910156 718.019531 L 1182.351562 719.140625 L 1209.234375 716.339844 L 1197.472656 722.5 L 1220.4375 716.898438 L 1218.195312 719.699219 L 1230.519531 723.617188 L 1176.191406 727.535156 L 1191.871094 728.097656 L 1176.191406 733.695312 L 1208.113281 730.335938 L 1204.195312 733.695312 L 1224.355469 729.214844 L 1220.4375 731.457031 L 1219.316406 733.695312 L 1241.160156 730.894531 L 1238.359375 735.375 L 1186.269531 740.414062 L 1181.789062 743.773438 L 1185.710938 745.449219 L 1156.027344 752.730469 L 1167.789062 748.25 L 1143.703125 751.609375 L 1143.703125 745.449219 L 1156.027344 746.570312 L 1153.785156 744.890625 L 1152.105469 744.890625 L 1167.226562 738.734375 L 1147.625 743.773438 L 1165.546875 737.054688 L 1157.707031 740.414062 L 1158.828125 738.171875 L 1158.265625 738.734375 L 1156.027344 739.292969 L 1142.585938 739.851562 L 1143.144531 738.734375 L 1144.824219 738.171875 L 1153.785156 738.734375 L 1152.105469 737.054688 L 1149.304688 736.492188 L 1167.226562 728.65625 L 1158.265625 731.457031 L 1160.507812 728.097656 L 1143.703125 734.8125 L 1154.90625 722.5 L 1143.144531 726.976562 L 1144.265625 720.257812 L 1151.546875 714.101562 L 1149.304688 714.101562 L 1149.867188 713.542969 L 1142.585938 718.019531 L 1149.867188 707.941406 L 1146.503906 709.0625 L 1147.066406 705.703125 L 1143.144531 709.621094 L 1140.90625 692.828125 L 1139.222656 712.980469 L 1129.703125 705.703125 L 1138.664062 718.578125 L 1130.261719 713.542969 L 1139.222656 724.738281 L 1131.382812 721.9375 L 1134.742188 724.738281 L 1127.460938 725.855469 L 1139.222656 733.695312 L 1130.261719 730.335938 L 1135.863281 734.253906 L 1116.820312 728.65625 L 1139.785156 738.171875 L 1139.785156 743.773438 L 1121.863281 735.933594 L 1122.980469 738.734375 L 1119.0625 738.734375 L 1131.941406 743.210938 L 1108.980469 740.414062 L 1111.21875 742.652344 L 1104.5 744.890625 L 1107.300781 743.210938 L 1106.738281 741.53125 L 1089.9375 748.25 L 1101.699219 735.933594 L 1089.375 740.414062 L 1090.496094 733.695312 L 1098.335938 727.535156 L 1096.097656 728.097656 L 1096.65625 726.976562 L 1088.816406 731.457031 L 1096.65625 721.378906 L 1093.296875 723.058594 L 1094.417969 719.140625 L 1089.375 723.617188 L 1087.136719 706.261719 L 1086.015625 726.976562 L 1076.496094 719.140625 L 1085.457031 732.015625 L 1077.613281 726.976562 L 1086.015625 738.734375 L 1080.976562 735.375 L 1078.175781 735.933594 L 1081.535156 738.734375 L 1077.613281 738.171875 L 1073.695312 739.292969 L 1085.457031 744.332031 L 1086.015625 747.691406 L 1083.777344 745.449219 L 1082.09375 746.011719 L 1078.175781 743.773438 L 1077.054688 743.773438 L 1077.054688 744.332031 L 1082.65625 748.25 L 1063.613281 742.652344 L 1086.574219 751.609375 L 1086.574219 757.765625 L 1068.652344 749.371094 L 1069.773438 752.730469 L 1065.851562 752.730469 L 1078.734375 756.648438 L 1055.210938 753.847656 L 1068.652344 758.328125 L 1067.53125 759.445312 L 1084.894531 759.445312 L 1086.574219 760.566406 L 1086.574219 761.6875 L 1082.65625 765.605469 L 1056.332031 765.605469 L 1069.773438 767.285156 L 1062.492188 770.082031 L 1086.574219 771.203125 L 1084.335938 774.5625 L 1072.015625 772.324219 L 1080.414062 776.242188 L 1057.453125 773.441406 L 1057.453125 776.242188 L 1050.171875 775.121094 L 1050.171875 776.800781 L 1117.378906 776.800781 L 1121.300781 774.003906 L 1120.742188 773.441406 L 1131.382812 773.441406 L 1124.660156 776.800781 L 1139.222656 773.441406 L 1138.105469 776.800781 L 1459.59375 776.800781 L 1459.59375 766.164062 L 1450.632812 756.648438 L 1459.59375 762.246094 L 1459.59375 705.703125 L 1446.710938 708.503906 L 1459.59375 700.664062 L 1459.59375 689.46875 L 1446.152344 685.550781 L 1446.710938 679.953125 L 1459.59375 688.910156 L 1459.59375 684.429688 L 1456.792969 682.75 L 1459.59375 683.308594 L 1459.59375 670.433594 L 1446.710938 659.796875 L 1459.59375 661.476562 L 1459.59375 648.042969 L 1447.832031 648.042969 L 1446.152344 647.480469 L 1450.632812 637.964844 L 1459.59375 646.363281 L 1459.59375 641.882812 L 1459.03125 641.324219 L 1459.59375 641.324219 L 1459.59375 633.484375 L 1447.832031 630.128906 L 1459.59375 625.089844 L 1459.59375 615.011719 L 1450.070312 613.890625 L 1455.671875 607.734375 L 1446.710938 611.09375 L 1459.59375 606.054688 L 1459.59375 602.695312 L 1452.871094 602.695312 L 1459.59375 602.136719 L 1459.59375 599.335938 L 1448.390625 600.457031 L 1448.953125 590.9375 L 1459.59375 597.097656 L 1459.59375 591.5 L 1453.433594 590.378906 L 1459.59375 590.378906 L 1459.59375 583.660156 L 1447.832031 585.339844 L 1459.59375 578.625 L 1459.59375 568.546875 L 1448.390625 559.589844 L 1447.832031 555.671875 L 1459.59375 556.789062 L 1459.59375 552.3125 L 1455.671875 552.871094 L 1459.59375 552.3125 L 1459.59375 547.273438 L 1446.152344 548.953125 L 1459.59375 543.355469 L 1459.59375 538.875 L 1459.03125 538.875 L 1459.59375 538.316406 L 1459.59375 531.597656 L 1446.710938 536.078125 L 1459.59375 523.199219 L 1459.59375 516.480469 L 1445.589844 521.519531 L 1456.792969 500.808594 L 1456.234375 501.367188 L 1459.03125 498.566406 L 1457.914062 499.6875 L 1459.03125 498.566406 L 1459.03125 496.886719 L 1445.03125 504.726562 L 1459.59375 486.8125 L 1452.871094 489.050781 L 1454.550781 482.332031 L 1446.152344 490.730469 L 1440.550781 458.261719 L 1439.429688 496.328125 L 1420.386719 483.453125 L 1437.75 506.40625 L 1421.507812 496.886719 L 1438.871094 517.601562 L 1422.628906 512.5625 L 1429.347656 517.601562 L 1417.027344 519.839844 L 1438.871094 533.835938 L 1420.945312 527.679688 L 1432.710938 534.957031 L 1394.0625 524.878906 L 1439.988281 552.3125 L 1432.710938 551.191406 L 1427.109375 541.675781 L 1404.144531 537.753906 L 1406.386719 542.792969 L 1399.105469 543.355469 L 1424.308594 551.191406 L 1378.378906 544.472656 L 1432.710938 567.425781 L 1380.0625 566.867188 L 1406.945312 570.226562 L 1391.824219 575.824219 L 1439.988281 577.503906 L 1434.949219 584.222656 L 1411.425781 578.625 L 1427.109375 585.902344 L 1381.742188 580.863281 L 1383.421875 586.460938 L 1367.179688 584.222656 L 1394.625 590.9375 L 1376.140625 595.976562 L 1390.140625 594.859375 L 1385.101562 598.21875 L 1439.429688 599.894531 L 1359.335938 600.457031 L 1423.1875 606.054688 L 1407.503906 614.453125 L 1439.429688 606.613281 L 1368.859375 614.453125 L 1399.664062 618.371094 L 1348.136719 619.492188 L 1354.296875 623.410156 L 1349.257812 626.207031 L 1421.507812 622.289062 L 1402.464844 627.328125 L 1420.386719 631.246094 L 1360.457031 631.804688 L 1361.578125 630.128906 L 1329.652344 639.085938 L 1339.734375 632.367188 L 1324.613281 638.523438 L 1344.214844 625.089844 L 1332.453125 623.410156 L 1338.054688 618.929688 L 1324.613281 623.410156 L 1339.175781 604.933594 L 1325.734375 613.332031 L 1340.292969 592.617188 L 1324.613281 604.375 L 1324.613281 574.144531 L 1322.371094 570.785156 L 1315.652344 589.257812 M 34.734375 615.570312 L 10.652344 613.890625 L 16.253906 607.734375 L 6.730469 611.09375 Z M 8.410156 590.9375 L 22.972656 598.777344 L 8.410156 600.457031 Z M 51.539062 632.367188 L 66.660156 637.40625 L 29.695312 623.96875 L 29.132812 623.96875 L 53.21875 635.726562 Z M 19.054688 641.324219 L 23.535156 639.644531 L 33.054688 643.5625 Z M 7.289062 630.128906 L 32.496094 635.164062 Z M 7.289062 648.042969 L 6.730469 647.480469 L 10.652344 637.964844 L 21.292969 647.480469 Z M 10.652344 682.191406 L 22.414062 690.027344 L 6.171875 685.550781 L 7.289062 679.953125 Z M 62.179688 685.550781 L 77.300781 689.46875 L 78.980469 689.46875 L 78.421875 686.667969 L 72.261719 682.75 L 98.023438 690.589844 L 93.542969 684.429688 L 92.425781 684.429688 L 101.386719 687.789062 L 99.707031 688.347656 L 118.746094 694.507812 L 93.542969 692.828125 L 92.984375 694.507812 L 90.742188 693.945312 L 91.863281 693.945312 L 93.542969 691.707031 L 16.8125 682.75 L 42.578125 688.910156 L 29.132812 679.390625 L 57.136719 691.148438 L 40.894531 679.390625 Z M 80.664062 682.191406 L 80.101562 681.632812 L 81.78125 682.75 Z M 110.90625 684.429688 L 105.304688 684.429688 Z M 130.511719 686.667969 L 133.308594 689.46875 L 131.070312 694.507812 L 112.027344 688.347656 Z M 140.589844 717.460938 L 142.832031 716.339844 L 144.511719 712.980469 L 137.789062 715.21875 L 137.789062 714.660156 L 156.273438 718.019531 L 157.394531 719.140625 Z M 174.195312 725.296875 L 185.957031 725.855469 L 182.039062 724.175781 L 221.804688 733.695312 L 221.804688 739.292969 L 203.882812 731.457031 L 205 733.695312 L 203.882812 733.695312 L 164.675781 725.296875 Z M 235.804688 733.695312 L 245.328125 733.136719 L 239.167969 735.375 L 240.285156 733.695312 L 239.726562 733.695312 L 227.964844 737.054688 L 224.042969 735.375 L 224.605469 734.8125 Z M 247.007812 733.136719 L 247.007812 732.574219 L 248.128906 732.574219 Z M 261.011719 733.695312 L 241.40625 738.734375 L 248.6875 733.695312 L 229.085938 739.292969 Z M 272.773438 724.175781 L 276.132812 723.058594 L 280.050781 726.417969 L 276.132812 724.175781 L 278.933594 728.097656 L 266.050781 728.65625 Z M 292.375 723.617188 L 331.019531 723.617188 L 319.257812 725.855469 L 320.378906 726.417969 L 319.257812 727.535156 L 284.535156 723.617188 L 299.65625 728.097656 Z M 339.421875 729.214844 L 341.101562 729.777344 L 338.863281 726.976562 L 360.703125 728.65625 L 361.824219 729.777344 L 357.34375 733.695312 L 329.339844 734.253906 L 331.582031 735.375 L 326.539062 734.8125 L 328.78125 734.253906 L 326.539062 733.136719 L 328.21875 732.015625 L 329.339844 730.335938 L 320.9375 732.015625 L 322.621094 730.894531 L 321.5 729.777344 L 335.5 727.535156 L 331.019531 730.894531 Z M 355.105469 718.019531 L 355.664062 717.460938 L 355.105469 718.578125 L 355.105469 719.140625 L 356.222656 719.140625 L 361.824219 716.898438 L 361.824219 719.140625 L 357.90625 720.820312 Z M 368.546875 706.824219 L 369.667969 706.824219 L 380.308594 712.980469 L 368.546875 711.863281 L 371.347656 708.503906 L 366.867188 710.183594 Z M 392.628906 723.617188 L 395.992188 724.738281 L 385.910156 724.175781 L 377.507812 717.460938 L 389.828125 723.617188 L 388.710938 721.9375 Z M 381.429688 723.058594 L 383.109375 723.617188 Z M 367.984375 716.339844 L 375.828125 719.699219 L 379.1875 723.617188 Z M 373.585938 730.335938 L 367.984375 730.894531 L 367.425781 730.335938 L 368.546875 724.738281 Z M 383.109375 739.292969 L 382.546875 738.171875 L 379.1875 736.492188 L 394.308594 738.734375 L 394.308594 739.292969 L 394.308594 738.734375 L 391.507812 737.054688 L 408.871094 738.734375 L 411.113281 746.570312 L 401.589844 739.292969 L 402.152344 742.09375 L 404.953125 744.890625 L 366.867188 737.613281 Z M 411.671875 737.613281 L 403.832031 735.375 L 411.671875 735.933594 Z M 409.992188 751.050781 L 408.871094 750.488281 Z M 429.035156 773.441406 L 429.035156 772.882812 L 430.714844 772.324219 L 432.957031 771.761719 Z M 415.035156 774.5625 L 420.632812 775.121094 Z M 408.871094 774.003906 L 411.113281 774.5625 L 411.113281 775.683594 Z M 373.585938 763.925781 L 379.1875 760.566406 L 384.789062 763.367188 L 378.628906 766.164062 Z M 371.347656 751.609375 L 374.148438 753.289062 L 366.867188 748.25 Z M 381.429688 752.167969 L 371.90625 749.371094 Z M 402.710938 753.289062 L 398.230469 748.808594 L 405.511719 750.488281 L 408.871094 754.410156 L 390.949219 753.289062 L 384.230469 748.25 Z M 403.273438 748.808594 L 404.390625 749.371094 Z M 410.550781 765.605469 L 401.589844 761.125 L 409.992188 763.925781 Z M 406.632812 767.84375 L 407.753906 767.84375 Z M 399.910156 768.402344 L 401.03125 768.402344 L 401.589844 768.964844 Z M 403.273438 766.164062 L 388.710938 761.6875 L 401.589844 763.925781 Z M 410.550781 767.285156 L 409.433594 766.722656 L 410.550781 766.164062 Z M 409.433594 754.96875 L 409.992188 756.085938 L 408.3125 756.085938 Z M 377.507812 747.691406 L 389.269531 753.289062 L 384.230469 752.730469 Z M 428.476562 772.882812 L 426.234375 772.882812 L 430.15625 772.324219 Z M 415.035156 772.882812 L 425.113281 774.003906 L 421.753906 774.5625 Z M 406.632812 747.691406 L 407.753906 747.691406 L 408.3125 748.25 L 403.832031 747.128906 Z M 410.550781 740.414062 L 409.433594 738.734375 L 411.671875 738.734375 Z M 366.867188 763.367188 L 373.585938 759.445312 L 375.828125 760.007812 Z M 334.941406 747.128906 L 333.820312 747.128906 L 328.21875 743.773438 L 343.34375 739.851562 L 342.78125 740.414062 L 342.222656 742.09375 L 342.222656 742.652344 L 342.78125 742.652344 L 344.460938 741.53125 L 344.460938 743.773438 L 348.941406 738.734375 L 351.183594 738.734375 L 353.984375 741.53125 L 353.984375 738.734375 L 352.304688 737.613281 L 360.703125 738.171875 Z M 334.941406 768.402344 L 328.78125 764.484375 L 336.0625 763.925781 L 334.382812 765.046875 L 359.585938 758.886719 Z M 311.417969 776.242188 L 312.539062 776.242188 Z M 272.773438 769.523438 L 280.050781 763.925781 Z M 267.171875 776.800781 L 266.050781 776.242188 Z M 268.851562 776.800781 L 267.171875 776.242188 L 267.171875 776.800781 L 267.171875 776.242188 Z M 200.519531 773.441406 L 196.601562 771.203125 L 205.5625 774.003906 Z M 200.519531 775.683594 L 200.519531 775.121094 L 201.082031 775.683594 Z M 90.742188 771.761719 L 93.542969 771.761719 L 87.382812 772.882812 L 86.824219 771.761719 Z M 64.980469 765.046875 L 67.78125 763.367188 L 68.339844 765.605469 Z M 56.578125 764.484375 L 63.300781 762.804688 L 61.621094 765.046875 Z M 10.652344 756.648438 L 51.539062 761.6875 L 47.058594 772.324219 L 19.054688 766.164062 Z M -24.074219 709.621094 L -27.996094 707.382812 L -6.152344 700.105469 Z M -10.632812 630.128906 L -14.550781 624.527344 L -15.671875 627.328125 L -1.671875 623.410156 Z M 20.734375 709.0625 L 43.695312 708.503906 Z M 92.984375 708.503906 L 77.300781 704.023438 Z M 96.90625 704.023438 L 96.34375 705.144531 L 93.542969 704.023438 Z M 104.746094 709.0625 L 100.265625 709.0625 L 99.144531 707.382812 L 104.1875 706.261719 L 108.105469 706.824219 L 107.546875 707.941406 L 110.347656 709.0625 Z M 127.148438 705.144531 L 126.027344 704.582031 L 121.546875 707.382812 L 113.707031 707.382812 L 110.90625 704.023438 L 128.269531 701.226562 L 127.710938 699.546875 L 130.511719 700.664062 L 133.308594 706.824219 Z M 132.75 712.980469 L 127.148438 718.578125 L 124.347656 717.460938 L 129.949219 713.542969 L 127.710938 713.542969 L 133.308594 712.421875 Z M 317.019531 734.253906 L 319.257812 734.253906 L 318.136719 734.8125 L 317.019531 735.933594 L 318.699219 737.054688 L 317.578125 737.054688 L 293.496094 737.613281 L 303.015625 734.8125 L 292.933594 732.574219 Z M 336.621094 736.492188 L 337.179688 736.492188 Z M 324.300781 739.851562 L 322.058594 740.414062 L 315.339844 738.734375 Z M 320.378906 747.691406 L 315.898438 746.570312 L 311.976562 743.210938 L 329.898438 747.128906 Z M 336.621094 762.246094 L 343.34375 761.125 L 334.941406 762.246094 Z M 322.621094 763.367188 L 335.5 760.566406 L 332.699219 761.125 L 330.460938 762.804688 Z M 323.179688 769.523438 L 313.097656 767.285156 L 331.019531 768.402344 Z M 286.214844 754.96875 L 286.214844 753.289062 L 294.613281 753.289062 L 292.933594 756.648438 L 293.496094 757.207031 L 297.976562 754.96875 L 302.457031 759.445312 L 302.457031 757.765625 L 305.257812 758.328125 L 305.257812 757.765625 L 303.578125 755.527344 L 310.296875 757.765625 L 322.058594 760.566406 L 314.21875 763.367188 L 286.773438 757.207031 Z M 268.289062 758.886719 L 247.007812 758.886719 L 256.527344 756.085938 L 253.167969 754.96875 L 268.289062 752.167969 L 264.371094 754.96875 L 280.050781 753.289062 Z M 265.492188 768.402344 L 275.570312 765.605469 Z M 212.84375 768.964844 L 207.800781 771.203125 L 199.960938 768.964844 Z M 188.199219 768.402344 L 189.878906 769.523438 Z M 186.519531 772.882812 L 180.917969 768.964844 L 191.558594 770.644531 L 194.917969 772.882812 Z M 152.914062 767.285156 L 168.59375 774.5625 L 162.433594 773.441406 Z M 145.070312 769.523438 L 158.515625 772.882812 Z M 75.0625 765.605469 L 76.742188 766.164062 L 75.621094 766.164062 Z M 53.21875 707.941406 L 70.582031 712.421875 Z M 127.710938 746.570312 L 115.949219 747.691406 L 100.824219 739.851562 L 100.265625 738.734375 L 129.390625 739.851562 L 131.628906 743.210938 Z M 113.707031 725.855469 L 108.105469 724.738281 L 114.828125 725.855469 Z M 124.347656 759.445312 L 130.511719 756.648438 L 126.589844 760.007812 Z M 115.386719 730.335938 L 92.425781 727.535156 L 119.867188 730.335938 Z M 241.40625 761.125 L 236.367188 762.804688 L 243.085938 763.367188 L 225.722656 765.605469 L 225.722656 760.007812 L 233.566406 764.484375 L 227.964844 760.007812 L 245.886719 760.566406 Z M 256.527344 769.523438 L 247.566406 769.523438 L 263.25 763.367188 Z M 229.085938 769.523438 L 231.324219 768.964844 L 236.367188 772.324219 L 229.085938 772.324219 Z M 226.84375 768.402344 L 229.085938 768.402344 L 225.164062 770.082031 Z M 244.207031 765.046875 L 243.085938 765.605469 Z M 245.886719 767.285156 L 240.847656 767.285156 L 241.96875 766.164062 L 249.246094 765.046875 Z M 244.765625 768.964844 L 240.847656 768.402344 L 244.765625 768.402344 Z M 236.925781 767.285156 L 236.367188 767.285156 L 238.046875 766.722656 Z M 225.164062 770.644531 L 226.84375 770.644531 L 225.164062 771.761719 Z M 227.964844 766.722656 L 229.644531 766.722656 Z M 189.878906 766.164062 L 191 766.722656 Z M 196.601562 762.804688 L 194.359375 763.925781 L 191 763.367188 Z M 212.84375 765.605469 L 196.039062 766.722656 L 199.398438 765.605469 L 198.839844 765.046875 L 221.242188 765.046875 Z M 262.691406 768.402344 L 258.210938 768.964844 L 269.972656 763.367188 Z M 226.84375 749.929688 L 228.523438 749.929688 Z M 226.84375 751.609375 L 228.523438 752.730469 L 233.566406 752.730469 L 232.445312 751.609375 L 243.648438 751.050781 L 231.324219 755.527344 L 255.410156 752.730469 L 253.167969 754.96875 L 242.527344 757.207031 L 244.207031 756.085938 L 243.085938 755.527344 L 225.164062 757.207031 L 225.164062 751.609375 Z M 231.324219 750.488281 L 231.324219 751.050781 L 228.523438 749.929688 L 232.445312 749.929688 Z M 278.933594 740.972656 L 279.492188 746.570312 L 279.492188 747.128906 L 273.332031 746.011719 Z M 331.019531 751.050781 L 334.382812 751.609375 L 329.339844 752.730469 L 329.898438 752.167969 L 329.339844 751.050781 Z M 319.257812 754.96875 L 321.5 754.410156 L 320.378906 754.96875 Z M 310.296875 752.167969 L 310.855469 752.167969 Z M 308.058594 745.449219 L 315.339844 746.570312 L 305.816406 746.011719 L 302.457031 747.691406 L 318.699219 748.25 L 313.097656 750.488281 L 286.214844 747.691406 L 285.652344 746.011719 L 285.652344 744.890625 L 308.058594 743.210938 L 305.816406 746.011719 Z M 265.492188 738.734375 L 263.808594 739.851562 L 266.050781 738.734375 Z M 252.046875 746.570312 L 268.851562 742.09375 L 263.25 745.449219 L 266.050781 744.332031 L 269.972656 747.128906 L 271.089844 746.011719 L 267.171875 743.773438 L 274.453125 743.210938 L 269.972656 747.128906 L 272.773438 747.691406 L 237.484375 748.808594 Z M 189.320312 749.371094 L 199.398438 750.488281 L 197.160156 752.167969 Z M 173.078125 752.167969 L 205.5625 756.085938 L 199.398438 752.730469 L 221.804688 753.289062 L 218.441406 756.648438 L 207.242188 753.847656 L 214.523438 758.328125 L 192.679688 754.96875 L 192.121094 756.648438 L 192.679688 758.328125 L 184.839844 757.207031 L 184.839844 758.328125 L 185.398438 758.328125 L 198.839844 760.007812 L 189.878906 763.367188 L 140.589844 758.328125 L 139.472656 757.207031 L 150.671875 756.648438 L 151.792969 755.527344 L 150.671875 753.289062 L 160.753906 755.527344 L 155.714844 751.050781 L 176.4375 754.96875 Z M 7.851562 730.894531 L 18.492188 728.65625 L 14.011719 733.695312 Z M -24.074219 762.246094 L -21.832031 761.125 L -21.273438 761.125 L -23.515625 762.246094 Z M 198.839844 775.683594 L 171.957031 775.121094 L 161.875 767.285156 L 187.636719 774.5625 L 187.636719 774.003906 Z M 208.363281 772.882812 L 221.242188 768.964844 L 220.125 771.761719 L 215.644531 772.882812 L 215.644531 773.441406 L 211.722656 774.003906 Z M 312.539062 729.214844 L 315.898438 729.214844 L 314.777344 729.777344 L 304.136719 729.777344 Z M 291.253906 733.695312 L 285.09375 733.136719 L 291.816406 734.8125 Z M 279.492188 732.574219 L 278.933594 735.375 L 273.890625 738.734375 L 267.171875 739.292969 Z M 269.410156 733.695312 L 261.011719 740.414062 L 250.367188 740.414062 L 258.210938 738.171875 L 257.089844 739.851562 Z M 238.046875 742.09375 L 241.40625 742.09375 L 237.484375 743.773438 L 236.925781 744.332031 L 256.527344 742.652344 L 238.046875 748.25 L 249.246094 743.773438 L 225.164062 747.128906 L 225.164062 740.972656 Z M 233.566406 740.414062 Z M 202.199219 734.8125 L 213.402344 738.734375 L 193.800781 737.054688 Z M 183.15625 743.773438 L 171.394531 738.171875 L 198.28125 740.414062 L 198.28125 739.292969 L 203.882812 740.414062 L 202.199219 740.972656 L 202.199219 741.53125 L 218.441406 740.972656 L 221.804688 743.210938 L 221.804688 743.773438 L 168.035156 746.011719 L 169.714844 743.773438 L 150.671875 744.332031 L 157.394531 740.414062 L 161.875 742.09375 L 154.035156 737.054688 Z M 64.417969 705.144531 L 96.34375 712.421875 L 94.105469 711.300781 L 121.546875 711.863281 L 84.023438 718.019531 L 86.261719 719.140625 L 73.382812 717.460938 L 89.625 714.101562 L 50.417969 704.023438 Z M 21.292969 700.664062 L 14.011719 709.0625 L 7.289062 708.503906 Z M 17.933594 499.6875 L 17.371094 500.246094 Z M 141.152344 685.550781 Z M 276.691406 704.582031 L 278.371094 704.582031 Z M 370.226562 688.910156 L 368.546875 688.910156 Z M -31.914062 551.191406 L 1.691406 564.066406 L -2.230469 566.867188 L -31.914062 561.828125 L -31.914062 575.265625 L -13.992188 572.464844 L 0.0117188 577.503906 L -4.472656 584.222656 L -27.996094 578.625 L -12.871094 585.902344 L -31.914062 587.582031 L -31.914062 595.417969 L 0.0117188 599.894531 L -31.914062 600.457031 L -31.914062 606.054688 L -16.792969 606.054688 L -31.914062 612.773438 L -31.914062 614.453125 L 0.0117188 606.613281 L -31.914062 615.570312 L -31.914062 623.410156 L -17.914062 622.289062 L -31.914062 626.769531 L -31.914062 630.128906 L -19.03125 631.246094 L -31.914062 631.246094 L -31.914062 640.203125 L -2.230469 647.480469 L -31.914062 654.757812 L -31.914062 668.195312 L -28.554688 663.15625 L -18.472656 667.636719 L -21.273438 660.359375 L -5.589844 660.917969 L -31.914062 670.996094 L -31.914062 709.0625 L -25.753906 710.183594 L -31.914062 711.863281 L -31.914062 730.335938 L -23.515625 730.894531 L -25.195312 728.65625 L -26.875 727.535156 L -25.195312 726.976562 L 0.570312 732.574219 L -7.269531 735.933594 L -31.355469 733.695312 L -31.914062 733.695312 L -31.914062 776.800781 L 73.382812 776.800781 L 49.296875 772.882812 L 54.898438 767.84375 L 68.339844 768.402344 L 63.300781 772.882812 L 81.78125 772.324219 L 82.902344 774.003906 L 75.0625 776.800781 L 272.210938 776.800781 L 271.652344 776.242188 L 288.453125 776.800781 L 287.332031 775.121094 L 290.695312 776.800781 L 367.425781 776.800781 L 367.425781 776.242188 L 371.347656 776.242188 L 370.785156 776.800781 L 408.3125 776.800781 L 407.753906 775.683594 L 408.871094 776.800781 L 439.675781 771.203125 L 445.839844 776.800781 L 463.199219 776.800781 L 467.679688 774.003906 L 459.839844 773.441406 L 463.761719 770.644531 L 455.359375 773.441406 L 464.320312 762.246094 L 455.917969 767.285156 L 464.882812 754.410156 L 454.800781 761.6875 L 453.679688 741.53125 L 450.878906 745.449219 L 451.4375 758.328125 L 447.519531 753.847656 L 448.078125 757.765625 L 444.71875 756.085938 L 452 766.722656 L 444.71875 762.246094 L 444.71875 763.367188 L 442.476562 762.804688 L 442.476562 763.367188 L 443.597656 765.046875 L 450.878906 768.964844 L 452 775.683594 L 439.675781 771.203125 L 440.796875 770.644531 L 425.113281 768.402344 L 439.117188 762.246094 L 430.15625 765.046875 L 432.394531 762.804688 L 431.835938 761.6875 L 415.035156 768.402344 L 418.953125 763.367188 L 420.074219 763.367188 L 419.515625 762.804688 L 422.316406 759.445312 L 427.355469 760.007812 L 426.234375 758.328125 L 431.835938 757.765625 L 426.234375 756.085938 L 414.472656 756.085938 L 415.59375 753.847656 L 416.714844 753.289062 L 422.316406 754.410156 L 418.953125 752.730469 L 422.875 749.371094 L 423.433594 747.691406 L 421.195312 748.25 L 421.195312 746.570312 L 416.152344 749.929688 L 415.035156 749.929688 L 421.195312 740.972656 L 418.394531 742.652344 L 418.953125 738.734375 L 415.035156 743.773438 L 412.234375 726.417969 L 411.113281 733.695312 L 374.707031 732.015625 L 377.507812 730.894531 L 373.027344 726.976562 L 379.746094 728.097656 L 376.386719 729.777344 L 377.507812 730.894531 L 380.308594 728.65625 L 382.546875 729.777344 L 384.230469 729.777344 L 378.066406 725.855469 L 399.910156 730.894531 L 390.390625 726.417969 L 410.550781 728.65625 L 406.070312 725.855469 L 414.472656 723.617188 L 386.46875 717.460938 L 402.152344 718.019531 L 398.789062 716.898438 L 411.671875 718.019531 L 411.671875 716.898438 L 382.546875 712.980469 L 381.988281 710.742188 L 392.628906 712.980469 L 387.589844 710.183594 L 397.671875 710.183594 L 382.546875 707.382812 L 390.390625 705.144531 L 369.667969 705.144531 L 382.546875 702.90625 L 367.425781 704.023438 L 367.425781 698.984375 L 375.828125 703.464844 L 370.226562 698.984375 L 391.507812 698.984375 L 388.710938 697.867188 L 398.230469 694.507812 L 384.789062 695.625 L 385.910156 694.507812 L 367.425781 695.625 L 366.867188 690.027344 L 375.265625 691.148438 L 370.785156 688.910156 L 387.589844 689.46875 L 379.1875 687.789062 L 394.871094 684.429688 L 379.746094 686.667969 L 391.507812 682.191406 L 366.867188 685.550781 L 367.425781 679.390625 L 379.1875 680.511719 L 375.265625 679.390625 L 390.949219 672.671875 L 370.785156 678.273438 L 389.269531 670.996094 L 381.429688 674.351562 L 382.546875 672.113281 L 366.304688 674.351562 L 377.507812 672.671875 L 373.027344 670.433594 L 390.949219 662.597656 L 381.988281 665.394531 L 383.667969 662.035156 L 366.867188 669.316406 L 378.066406 656.4375 L 366.304688 660.917969 L 367.425781 654.757812 L 375.265625 648.042969 L 373.027344 648.601562 L 373.027344 647.480469 L 366.304688 651.960938 L 373.027344 641.324219 L 369.667969 643.003906 L 370.785156 639.644531 L 366.304688 644.121094 L 364.066406 626.769531 L 362.386719 646.921875 L 352.863281 640.203125 L 361.824219 652.519531 L 353.984375 647.480469 L 362.386719 659.238281 L 354.542969 655.878906 L 357.90625 659.238281 L 350.625 659.796875 L 362.386719 668.195312 L 353.984375 664.835938 L 359.023438 668.195312 L 339.980469 662.597656 L 362.945312 672.113281 L 362.945312 678.273438 L 345.023438 669.875 L 346.144531 672.671875 L 342.78125 673.234375 L 355.105469 677.152344 L 331.582031 674.351562 L 345.023438 679.390625 L 343.902344 679.390625 L 362.945312 681.632812 L 333.261719 686.109375 L 346.703125 687.789062 L 338.863281 690.589844 L 362.945312 691.707031 L 360.703125 695.066406 L 349.503906 692.828125 L 356.785156 696.746094 L 334.382812 693.945312 L 334.941406 696.746094 L 326.539062 695.625 L 340.542969 698.984375 L 331.019531 702.34375 L 338.300781 701.226562 L 336.0625 703.464844 L 362.945312 704.023438 L 322.621094 704.023438 L 354.542969 707.941406 L 346.703125 711.863281 L 362.945312 707.941406 L 360.703125 711.300781 L 327.660156 711.863281 L 342.78125 714.101562 L 317.578125 714.660156 L 320.378906 716.898438 L 318.136719 719.140625 L 353.984375 716.339844 L 344.460938 719.140625 L 353.425781 721.378906 L 323.738281 721.378906 L 324.300781 720.257812 L 284.535156 719.699219 L 311.417969 719.140625 L 308.617188 717.460938 L 315.339844 718.019531 L 306.375 714.660156 L 320.9375 711.300781 L 312.539062 712.980469 L 312.539062 709.621094 L 290.695312 712.980469 L 297.976562 708.503906 L 286.773438 711.300781 L 284.535156 707.941406 L 308.058594 706.261719 L 300.777344 703.464844 L 313.65625 701.785156 L 283.414062 697.867188 L 303.015625 695.625 L 301.894531 695.066406 L 314.777344 690.027344 L 291.816406 693.386719 L 304.695312 688.910156 L 300.777344 688.910156 L 302.457031 685.550781 L 284.535156 694.507812 L 283.414062 687.789062 L 306.9375 678.832031 L 287.894531 684.429688 L 293.496094 679.953125 L 284.535156 683.871094 L 296.296875 675.472656 L 289.574219 674.351562 L 292.375 672.113281 L 284.535156 674.351562 L 293.496094 663.714844 L 285.09375 668.753906 L 294.054688 655.878906 L 284.535156 663.15625 L 282.851562 642.441406 L 280.613281 659.796875 L 276.691406 655.320312 L 277.253906 659.238281 L 273.890625 657.558594 L 281.171875 667.636719 L 274.453125 663.15625 L 274.453125 664.835938 L 272.210938 664.277344 L 280.050781 669.875 L 280.613281 676.59375 L 268.851562 672.113281 L 280.050781 684.429688 L 263.25 677.710938 L 265.492188 681.632812 L 256.527344 678.832031 L 274.453125 686.109375 L 271.652344 686.667969 L 269.972656 688.910156 L 281.171875 689.46875 L 277.8125 691.707031 L 267.171875 689.46875 L 264.929688 687.789062 L 266.050781 690.027344 L 258.210938 686.667969 L 259.890625 689.46875 L 276.132812 694.507812 L 256.527344 688.347656 L 258.210938 690.589844 L 271.652344 695.066406 L 267.171875 696.1875 L 280.050781 695.625 L 280.050781 701.785156 L 255.96875 698.425781 L 267.171875 702.34375 L 252.046875 699.546875 L 268.289062 704.023438 L 259.890625 705.703125 L 276.691406 704.582031 L 271.652344 706.824219 L 280.050781 706.261719 L 280.050781 711.863281 L 261.011719 710.183594 L 262.691406 711.300781 L 249.246094 710.183594 L 248.6875 710.183594 L 258.769531 714.101562 L 255.410156 715.21875 L 277.253906 714.101562 L 271.652344 719.140625 L 279.492188 714.660156 L 279.492188 719.699219 L 264.929688 718.578125 L 277.8125 721.378906 L 256.527344 721.378906 L 264.929688 723.617188 L 250.367188 725.296875 L 249.246094 726.417969 L 259.328125 726.417969 L 254.847656 728.65625 L 265.492188 726.417969 L 264.929688 728.65625 L 237.484375 732.015625 L 234.6875 733.136719 L 230.765625 732.015625 L 248.6875 723.617188 L 239.726562 726.976562 L 241.96875 723.617188 L 225.164062 730.335938 L 236.925781 718.019531 L 224.605469 722.5 L 225.722656 715.78125 L 233.003906 709.0625 L 230.765625 709.621094 L 230.765625 709.0625 L 224.042969 713.542969 L 231.324219 702.90625 L 227.964844 704.023438 L 228.523438 700.664062 L 224.605469 705.144531 L 222.363281 688.347656 L 221.242188 708.503906 L 211.164062 701.226562 L 220.683594 714.101562 L 211.722656 709.0625 L 221.242188 720.257812 L 212.84375 717.460938 L 216.203125 720.257812 L 208.921875 720.820312 L 220.125 725.296875 L 221.242188 729.214844 L 217.324219 726.417969 L 216.203125 726.976562 L 216.761719 728.097656 L 211.722656 725.855469 L 212.84375 727.535156 L 217.324219 729.214844 L 159.632812 719.140625 L 158.515625 715.78125 L 173.636719 719.140625 L 166.914062 715.78125 L 180.359375 715.21875 L 159.632812 711.863281 L 171.394531 709.0625 L 142.273438 709.0625 L 158.515625 706.824219 L 159.632812 704.582031 L 139.472656 706.824219 L 139.472656 699.546875 L 150.671875 705.703125 L 142.832031 698.984375 L 173.078125 700.105469 L 168.035156 698.425781 L 180.917969 693.945312 L 162.433594 695.066406 L 164.675781 693.945312 L 138.910156 695.625 L 137.789062 687.789062 L 150.113281 688.910156 L 143.390625 685.550781 L 166.914062 687.230469 L 156.273438 684.429688 L 177.558594 679.390625 L 175.875 679.390625 L 156.273438 682.75 L 172.515625 676.59375 L 137.789062 681.632812 L 138.910156 673.792969 L 156.273438 674.351562 L 155.714844 673.792969 L 152.914062 672.671875 L 150.113281 672.671875 L 169.714844 665.957031 L 171.957031 663.714844 L 143.953125 671.554688 L 167.476562 663.714844 L 168.59375 661.476562 L 157.953125 665.957031 L 159.632812 662.597656 L 136.671875 665.394531 L 152.914062 663.714844 L 146.753906 660.359375 L 171.957031 649.722656 L 159.074219 654.199219 L 161.316406 649.160156 L 137.789062 658.679688 L 154.035156 641.324219 L 137.230469 647.480469 L 138.910156 638.523438 L 149.554688 630.128906 L 146.753906 630.128906 L 146.753906 629.007812 L 136.671875 635.164062 L 146.753906 620.609375 L 142.832031 622.847656 L 143.390625 618.371094 L 137.230469 623.96875 L 134.429688 600.457031 L 132.75 628.449219 L 119.308594 618.929688 L 131.628906 635.726562 L 120.429688 629.007812 L 132.75 644.683594 L 120.988281 640.765625 L 126.027344 644.683594 L 115.949219 645.800781 L 128.828125 649.722656 L 132.75 657 L 120.988281 652.519531 L 119.867188 652.519531 L 128.269531 657.558594 L 101.386719 649.722656 L 133.308594 662.597656 L 133.308594 670.996094 L 108.667969 659.796875 L 110.347656 663.714844 L 104.746094 664.277344 L 122.667969 669.316406 L 90.742188 665.957031 L 109.226562 672.671875 L 107.546875 673.792969 L 133.308594 676.03125 L 132.191406 679.953125 L 131.070312 681.632812 L 89.625 679.953125 L 96.34375 677.710938 L 7.289062 659.796875 L 39.214844 664.277344 L 32.496094 658.679688 L 62.738281 663.714844 L 56.578125 659.796875 L 104.1875 664.835938 L 81.222656 656.4375 L 104.746094 655.320312 L 22.972656 650.28125 L 40.894531 645.242188 L 37.535156 641.324219 L 72.261719 649.160156 L 54.898438 640.765625 L 94.664062 644.121094 L 87.941406 640.203125 L 102.503906 635.164062 L 45.9375 623.96875 L 77.863281 625.089844 L 71.140625 622.847656 L 97.464844 624.527344 L 94.105469 621.167969 L 38.09375 615.570312 L 36.414062 611.652344 L 68.339844 611.09375 L 38.09375 606.054688 L 54.898438 602.695312 L 12.890625 602.695312 L 37.535156 597.097656 L 24.09375 598.777344 L 25.773438 598.21875 L 13.453125 590.378906 L 57.136719 590.9375 L 52.65625 588.699219 L 69.460938 582.542969 L 44.816406 583.660156 L 45.9375 582.542969 L 7.851562 585.339844 L 24.09375 575.824219 L 20.734375 571.90625 L 48.738281 573.585938 L 33.054688 570.785156 L 64.417969 563.507812 L 33.613281 567.988281 L 54.898438 561.828125 L 56.578125 560.148438 L 8.410156 560.707031 L 7.289062 555.671875 L 32.496094 557.351562 L 33.054688 556.789062 L 25.773438 554.550781 L 24.09375 554.550781 L 55.457031 542.234375 L 15.691406 552.871094 L 51.539062 539.996094 L 35.296875 546.152344 L 38.09375 541.113281 L 6.171875 548.953125 L 29.132812 542.792969 L 19.054688 538.875 L 55.457031 524.320312 L 36.976562 529.917969 L 40.894531 523.199219 L 6.730469 536.078125 L 30.816406 513.125 L 5.609375 521.519531 L 16.8125 500.808594 L 16.253906 501.367188 L 19.613281 498.566406 L 17.933594 499.6875 L 19.613281 498.566406 L 19.613281 496.886719 L 5.609375 504.726562 L 20.171875 486.25 L 13.453125 489.050781 L 15.132812 482.332031 L 6.171875 490.730469 L 0.570312 458.261719 L -0.550781 496.328125 L -19.59375 483.453125 L -1.671875 506.40625 L -18.472656 496.886719 L -1.109375 517.601562 L -16.792969 512.5625 L -10.632812 517.601562 L -23.515625 519.839844 L -0.550781 533.835938 L -18.472656 527.679688 L -7.832031 534.957031 L -31.914062 526.558594 L -31.914062 532.71875 L 0.0117188 552.3125 L -12.3125 541.675781 L -31.914062 539.433594 L -31.914062 546.152344 L -15.671875 551.191406 L -31.914062 549.511719 L -31.914062 551.191406 " fill-opacity="1" fill-rule="nonzero"/><g clip-path="url(#clip-0)"><path fill="rgb(98.039246%, 98.039246%, 98.039246%)" d="M -33.035156 776.800781 C 5.609375 771.761719 113.148438 770.644531 158.515625 772.882812 C 203.320312 775.683594 374.707031 766.164062 430.714844 767.285156 C 486.164062 767.84375 695.078125 775.683594 794.210938 775.683594 C 893.347656 775.683594 1007.605469 770.644531 1113.460938 770.644531 C 1219.316406 770.644531 1459.59375 776.800781 1459.59375 776.800781 L 1459.59375 815.988281 L -33.59375 815.988281 Z M -33.035156 776.800781 " fill-opacity="1" fill-rule="nonzero"/></g></svg>