<?xml version="1.0" encoding="UTF-8"?><svg xmlns="http://www.w3.org/2000/svg" xmlns:xlink="http://www.w3.org/1999/xlink" width="1440" zoomAndPan="magnify" viewBox="0 0 1440 809.999993" height="809.999993" preserveAspectRatio="xMidYMid meet" version="1.0"><defs><clipPath id="clip-0"><path d="M 315 0 L 1125 0 L 1125 810 L 315 810 Z M 315 0 " clip-rule="nonzero"/></clipPath></defs><path fill="rgb(100%, 98.81897%, 74.119568%)" d="M 1121.1875 404.988281 C 1121.1875 467.550781 1106.871094 526.789062 1081.316406 579.554688 C 1055.574219 632.78125 1018.410156 679.433594 973.015625 716.363281 C 910.601562 767.152344 832.609375 799.542969 747.320312 805.261719 C 738.296875 805.875 729.191406 806.183594 720.015625 806.183594 C 527.609375 806.183594 366.820312 670.726562 327.84375 489.960938 C 321.933594 462.570312 318.824219 434.148438 318.824219 404.988281 C 318.824219 310.066406 351.789062 222.832031 406.917969 154.140625 C 452.882812 96.847656 514.25 52.445312 584.746094 27.210938 C 627.007812 12.070312 672.542969 3.824219 720.015625 3.824219 C 766.300781 3.824219 810.757812 11.652344 852.117188 26.089844 C 949.960938 60.191406 1030.542969 131.121094 1077.261719 222.273438 C 1105.335938 277.070312 1121.1875 339.1875 1121.1875 404.988281 " fill-opacity="1" fill-rule="nonzero"/><g clip-path="url(#clip-0)"><path stroke-linecap="round" transform="matrix(0.0577909, 0, 0, -0.0577909, 179.5669, 945.789812)" fill="none" stroke-linejoin="round" d="M 16293.984561 9358.103909 C 16293.984561 8275.537282 16046.25687 7250.492146 15604.064633 6337.380722 C 15158.560347 5416.360938 14515.482245 4609.099872 13729.986068 3970.009746 C 12649.987968 3091.167883 11300.362104 2530.688208 9824.540442 2431.732318 C 9668.401025 2421.120245 9510.842158 2415.780412 9352.066621 2415.780412 C 6022.579426 2415.780412 3240.25612 4759.764271 2565.814949 7887.757266 C 2463.54701 8361.718129 2409.743124 8853.523497 2409.743124 9358.103909 C 2409.743124 11000.744654 2980.158944 12510.22754 3934.164024 13698.914897 C 4729.528753 14690.298808 5791.411977 15458.626408 7011.259624 15895.276034 C 7742.613951 16157.26581 8530.54347 16299.954256 9352.066621 16299.954256 C 10152.973961 16299.954256 10922.315454 16164.498242 11637.988247 15914.675174 C 13331.120829 15324.589843 14725.493141 14097.239393 15533.903284 12519.893314 C 16019.692892 11571.701216 16293.984561 10496.772577 16293.984561 9358.103909 Z M 16293.984561 9358.103909 " stroke="rgb(1.959229%, 0.779724%, 0%)" stroke-width="131.964005" stroke-opacity="1" stroke-miterlimit="10"/></g><path fill="rgb(85.879517%, 84.309387%, 53.329468%)" d="M 1004.011719 330.222656 C 1004.011719 386.171875 958.65625 431.527344 902.707031 431.527344 C 846.757812 431.527344 801.402344 386.171875 801.402344 330.222656 C 801.402344 274.273438 846.757812 228.917969 902.707031 228.917969 C 958.65625 228.917969 1004.011719 274.273438 1004.011719 330.222656 " fill-opacity="1" fill-rule="nonzero"/><path stroke-linecap="round" transform="matrix(0.050953, 0, 0, -0.050953, 179.5669, 945.789812)" fill="none" stroke-linejoin="round" d="M 16180.492861 12081.075354 C 16180.492861 10983.020136 15290.349795 10092.87707 14192.294577 10092.87707 C 13094.239359 10092.87707 12204.096293 10983.020136 12204.096293 12081.075354 C 12204.096293 13179.130571 13094.239359 14069.273637 14192.294577 14069.273637 C 15290.349795 14069.273637 16180.492861 13179.130571 16180.492861 12081.075354 Z M 16180.492861 12081.075354 " stroke="rgb(1.959229%, 0.779724%, 0%)" stroke-width="149.669998" stroke-opacity="1" stroke-miterlimit="10"/><path fill="rgb(85.879517%, 84.309387%, 53.329468%)" d="M 838.46875 175.496094 C 838.46875 209.75 810.695312 237.511719 776.445312 237.511719 C 742.195312 237.511719 714.425781 209.75 714.425781 175.496094 C 714.425781 141.246094 742.195312 113.476562 776.445312 113.476562 C 810.695312 113.476562 838.46875 141.246094 838.46875 175.496094 " fill-opacity="1" fill-rule="nonzero"/><path stroke-linecap="round" transform="matrix(0.05106, 0, 0, -0.05106, 179.5669, 945.789812)" fill="none" stroke-linejoin="round" d="M 12903.922665 15085.433172 C 12903.922665 14414.577413 12359.985562 13870.869819 11689.282809 13870.869819 C 11018.503552 13870.869819 10474.719456 14414.577413 10474.719456 15085.433172 C 10474.719456 15756.212429 11018.503552 16299.996525 11689.282809 16299.996525 C 12359.985562 16299.996525 12903.922665 15756.212429 12903.922665 15085.433172 Z M 12903.922665 15085.433172 " stroke="rgb(1.959229%, 0.779724%, 0%)" stroke-width="149.350006" stroke-opacity="1" stroke-miterlimit="10"/><path fill="rgb(92.939758%, 91.369629%, 65.879822%)" d="M 659.769531 671.644531 C 659.769531 703.875 633.640625 730.003906 601.410156 730.003906 C 569.179688 730.003906 543.046875 703.875 543.046875 671.644531 C 543.046875 639.410156 569.179688 613.285156 601.410156 613.285156 C 633.640625 613.285156 659.769531 639.410156 659.769531 671.644531 " fill-opacity="1" fill-rule="nonzero"/><path stroke-linecap="round" transform="matrix(0.050953, 0, 0, -0.050953, 179.5669, 945.789812)" fill="none" stroke-linejoin="round" d="M 9424.421219 5380.354956 C 9424.421219 4747.802167 8911.617243 4234.998191 8279.064454 4234.998191 C 7646.511664 4234.998191 7133.631024 4747.802167 7133.631024 5380.354956 C 7133.631024 6012.984409 7646.511664 6525.711722 8279.064454 6525.711722 C 8911.617243 6525.711722 9424.421219 6012.984409 9424.421219 5380.354956 Z M 9424.421219 5380.354956 " stroke="rgb(1.959229%, 0.779724%, 0%)" stroke-width="149.669998" stroke-opacity="1" stroke-miterlimit="10"/><path fill="rgb(85.879517%, 84.309387%, 53.329468%)" d="M 926.738281 171.769531 C 926.738281 188.410156 913.25 201.894531 896.609375 201.894531 C 879.972656 201.894531 866.484375 188.410156 866.484375 171.769531 C 866.484375 155.136719 879.972656 141.644531 896.609375 141.644531 C 913.25 141.644531 926.738281 155.136719 926.738281 171.769531 " fill-opacity="1" fill-rule="nonzero"/><path stroke-linecap="round" transform="matrix(0.050953, 0, 0, -0.050953, 179.5669, 945.789812)" fill="none" stroke-linejoin="round" d="M 14663.930107 15190.864633 C 14663.930107 14864.276961 14399.2101 14599.633618 14072.622428 14599.633618 C 13746.111419 14599.633618 13481.391412 14864.276961 13481.391412 15190.864633 C 13481.391412 15517.298978 13746.111419 15782.095649 14072.622428 15782.095649 C 14399.2101 15782.095649 14663.930107 15517.298978 14663.930107 15190.864633 Z M 14663.930107 15190.864633 " stroke="rgb(1.959229%, 0.779724%, 0%)" stroke-width="149.669998" stroke-opacity="1" stroke-miterlimit="10"/><path fill="rgb(92.939758%, 91.369629%, 65.879822%)" d="M 923.144531 169.949219 C 923.144531 185.605469 910.449219 198.300781 894.792969 198.300781 C 879.132812 198.300781 866.4375 185.605469 866.4375 169.949219 C 866.4375 154.289062 879.132812 141.597656 894.792969 141.597656 C 910.449219 141.597656 923.144531 154.289062 923.144531 169.949219 " fill-opacity="1" fill-rule="nonzero"/><path stroke-linecap="round" transform="matrix(0.050953, 0, 0, -0.050953, 179.5669, 945.789812)" fill="none" stroke-linejoin="round" d="M 14593.399436 15226.589952 C 14593.399436 14919.32155 14344.242175 14670.164289 14036.973773 14670.164289 C 13729.628708 14670.164289 13480.471447 14919.32155 13480.471447 15226.589952 C 13480.471447 15533.935017 13729.628708 15783.015614 14036.973773 15783.015614 C 14344.242175 15783.015614 14593.399436 15533.935017 14593.399436 15226.589952 Z M 14593.399436 15226.589952 " stroke="rgb(1.959229%, 0.779724%, 0%)" stroke-width="149.669998" stroke-opacity="1" stroke-miterlimit="10"/><path fill="rgb(85.879517%, 84.309387%, 53.329468%)" d="M 530.734375 155.957031 C 530.734375 172.59375 517.25 186.085938 500.609375 186.085938 C 483.972656 186.085938 470.484375 172.59375 470.484375 155.957031 C 470.484375 139.320312 483.972656 125.828125 500.609375 125.828125 C 517.25 125.828125 530.734375 139.320312 530.734375 155.957031 " fill-opacity="1" fill-rule="nonzero"/><path stroke-linecap="round" transform="matrix(0.050953, 0, 0, -0.050953, 179.5669, 945.789812)" fill="none" stroke-linejoin="round" d="M 6891.986813 15501.199586 C 6891.986813 15174.688577 6627.343469 14909.891906 6300.755797 14909.891906 C 5974.244788 14909.891906 5709.524781 15174.688577 5709.524781 15501.199586 C 5709.524781 15827.710594 5974.244788 16092.507265 6300.755797 16092.507265 C 6627.343469 16092.507265 6891.986813 15827.710594 6891.986813 15501.199586 Z M 6891.986813 15501.199586 " stroke="rgb(1.959229%, 0.779724%, 0%)" stroke-width="149.669998" stroke-opacity="1" stroke-miterlimit="10"/><path fill="rgb(92.939758%, 91.369629%, 65.879822%)" d="M 527.140625 154.136719 C 527.140625 169.792969 514.449219 182.484375 498.789062 182.484375 C 483.136719 182.484375 470.4375 169.792969 470.4375 154.136719 C 470.4375 138.480469 483.136719 125.789062 498.789062 125.789062 C 514.449219 125.789062 527.140625 138.480469 527.140625 154.136719 " fill-opacity="1" fill-rule="nonzero"/><path stroke-linecap="round" transform="matrix(0.050953, 0, 0, -0.050953, 179.5669, 945.789812)" fill="none" stroke-linejoin="round" d="M 6821.456142 15536.924904 C 6821.456142 15229.656502 6572.375544 14980.575905 6265.030479 14980.575905 C 5957.838741 14980.575905 5708.604816 15229.656502 5708.604816 15536.924904 C 5708.604816 15844.193305 5957.838741 16093.273903 6265.030479 16093.273903 C 6572.375544 16093.273903 6821.456142 15844.193305 6821.456142 15536.924904 Z M 6821.456142 15536.924904 " stroke="rgb(1.959229%, 0.779724%, 0%)" stroke-width="149.669998" stroke-opacity="1" stroke-miterlimit="10"/><path fill="rgb(92.939758%, 91.369629%, 65.879822%)" d="M 470.4375 528.265625 C 470.4375 543.921875 457.746094 556.617188 442.089844 556.617188 C 426.433594 556.617188 413.738281 543.921875 413.738281 528.265625 C 413.738281 512.609375 426.433594 499.914062 442.089844 499.914062 C 457.746094 499.914062 470.4375 512.609375 470.4375 528.265625 " fill-opacity="1" fill-rule="nonzero"/><path stroke-linecap="round" transform="matrix(0.050953, 0, 0, -0.050953, 179.5669, 945.789812)" fill="none" stroke-linejoin="round" d="M 5708.604816 8194.298737 C 5708.604816 7887.030335 5459.524218 7637.873074 5152.255817 7637.873074 C 4844.987415 7637.873074 4595.830154 7887.030335 4595.830154 8194.298737 C 4595.830154 8501.567138 4844.987415 8750.7244 5152.255817 8750.7244 C 5459.524218 8750.7244 5708.604816 8501.567138 5708.604816 8194.298737 Z M 5708.604816 8194.298737 " stroke="rgb(1.959229%, 0.779724%, 0%)" stroke-width="149.669998" stroke-opacity="1" stroke-miterlimit="10"/><path fill="rgb(92.939758%, 91.369629%, 65.879822%)" d="M 651.109375 524.667969 C 651.109375 540.324219 638.417969 553.023438 622.761719 553.023438 C 607.105469 553.023438 594.410156 540.324219 594.410156 524.667969 C 594.410156 509.011719 607.105469 496.320312 622.761719 496.320312 C 638.417969 496.320312 651.109375 509.011719 651.109375 524.667969 " fill-opacity="1" fill-rule="nonzero"/><path stroke-linecap="round" transform="matrix(0.050953, 0, 0, -0.050953, 179.5669, 945.789812)" fill="none" stroke-linejoin="round" d="M 9254.457635 8264.906072 C 9254.457635 7957.63767 9005.377037 7708.403745 8698.108636 7708.403745 C 8390.840234 7708.403745 8141.682973 7957.63767 8141.682973 8264.906072 C 8141.682973 8572.174473 8390.840234 8821.255071 8698.108636 8821.255071 C 9005.377037 8821.255071 9254.457635 8572.174473 9254.457635 8264.906072 Z M 9254.457635 8264.906072 " stroke="rgb(1.959229%, 0.779724%, 0%)" stroke-width="149.669998" stroke-opacity="1" stroke-miterlimit="10"/><path fill="rgb(85.879517%, 84.309387%, 53.329468%)" d="M 878.027344 113.402344 C 878.027344 121.171875 871.722656 127.46875 863.960938 127.46875 C 856.191406 127.46875 849.886719 121.171875 849.886719 113.402344 C 849.886719 105.632812 856.191406 99.335938 863.960938 99.335938 C 871.722656 99.335938 878.027344 105.632812 878.027344 113.402344 " fill-opacity="1" fill-rule="nonzero"/><path stroke-linecap="round" transform="matrix(0.0519313, 0, 0, -0.0519313, 179.5669, 945.789812)" fill="none" stroke-linejoin="round" d="M 13450.074808 16029.076517 C 13450.074808 15879.464817 13328.670442 15758.21089 13179.209181 15758.21089 C 13029.597481 15758.21089 12908.193115 15879.464817 12908.193115 16029.076517 C 12908.193115 16178.688217 13029.597481 16300.017364 13179.209181 16300.017364 C 13328.670442 16300.017364 13450.074808 16178.688217 13450.074808 16029.076517 Z M 13450.074808 16029.076517 " stroke="rgb(1.959229%, 0.779724%, 0%)" stroke-width="146.854004" stroke-opacity="1" stroke-miterlimit="10"/><path fill="rgb(92.939758%, 91.369629%, 65.879822%)" d="M 876.347656 112.546875 C 876.347656 119.859375 870.421875 125.789062 863.109375 125.789062 C 855.800781 125.789062 849.871094 119.859375 849.871094 112.546875 C 849.871094 105.242188 855.800781 99.308594 863.109375 99.308594 C 870.421875 99.308594 876.347656 105.242188 876.347656 112.546875 " fill-opacity="1" fill-rule="nonzero"/><path stroke-linecap="round" transform="matrix(0.0519313, 0, 0, -0.0519313, 179.5669, 945.789812)" fill="none" stroke-linejoin="round" d="M 13417.3543 16045.098283 C 13417.3543 15904.287271 13303.246231 15790.103983 13162.435219 15790.103983 C 13021.699427 15790.103983 12907.516139 15904.287271 12907.516139 16045.098283 C 12907.516139 16185.758856 13021.699427 16300.017364 13162.435219 16300.017364 C 13303.246231 16300.017364 13417.3543 16185.758856 13417.3543 16045.098283 Z M 13417.3543 16045.098283 " stroke="rgb(1.959229%, 0.779724%, 0%)" stroke-width="146.850998" stroke-opacity="1" stroke-miterlimit="10"/><path fill="rgb(85.879517%, 84.309387%, 53.329468%)" d="M 587.332031 112.558594 C 587.332031 120.324219 581.035156 126.625 573.261719 126.625 C 565.492188 126.625 559.195312 120.324219 559.195312 112.558594 C 559.195312 104.785156 565.492188 98.488281 573.261719 98.488281 C 581.035156 98.488281 587.332031 104.785156 587.332031 112.558594 " fill-opacity="1" fill-rule="nonzero"/><path stroke-linecap="round" transform="matrix(0.0519823, 0, 0, -0.0519823, 179.5669, 945.789812)" fill="none" stroke-linejoin="round" d="M 7844.388428 16029.296045 C 7844.388428 15879.906137 7723.253352 15758.695915 7573.713152 15758.695915 C 7424.248098 15758.695915 7303.113022 15879.906137 7303.113022 16029.296045 C 7303.113022 16178.836244 7424.248098 16299.971321 7573.713152 16299.971321 C 7723.253352 16299.971321 7844.388428 16178.836244 7844.388428 16029.296045 Z M 7844.388428 16029.296045 " stroke="rgb(1.959229%, 0.779724%, 0%)" stroke-width="146.707993" stroke-opacity="1" stroke-miterlimit="10"/><path fill="rgb(92.939758%, 91.369629%, 65.879822%)" d="M 585.652344 111.710938 C 585.652344 119.027344 579.722656 124.949219 572.410156 124.949219 C 565.101562 124.949219 559.171875 119.027344 559.171875 111.710938 C 559.171875 104.402344 565.101562 98.472656 572.410156 98.472656 C 579.722656 98.472656 585.652344 104.402344 585.652344 111.710938 " fill-opacity="1" fill-rule="nonzero"/><path stroke-linecap="round" transform="matrix(0.0519823, 0, 0, -0.0519823, 179.5669, 945.789812)" fill="none" stroke-linejoin="round" d="M 7811.850284 16045.302106 C 7811.850284 15904.553969 7697.854062 15790.632892 7557.18107 15790.632892 C 7416.583224 15790.632892 7302.511856 15904.553969 7302.511856 16045.302106 C 7302.511856 16185.899952 7416.583224 16299.971321 7557.18107 16299.971321 C 7697.854062 16299.971321 7811.850284 16185.899952 7811.850284 16045.302106 Z M 7811.850284 16045.302106 " stroke="rgb(1.959229%, 0.779724%, 0%)" stroke-width="146.705002" stroke-opacity="1" stroke-miterlimit="10"/><path fill="rgb(85.879517%, 84.309387%, 53.329468%)" d="M 963.003906 627.050781 C 963.003906 643.691406 949.519531 657.175781 932.878906 657.175781 C 916.238281 657.175781 902.753906 643.691406 902.753906 627.050781 C 902.753906 610.410156 916.238281 596.917969 932.878906 596.917969 C 949.519531 596.917969 963.003906 610.410156 963.003906 627.050781 " fill-opacity="1" fill-rule="nonzero"/><path stroke-linecap="round" transform="matrix(0.050953, 0, 0, -0.050953, 179.5669, 945.789812)" fill="none" stroke-linejoin="round" d="M 15375.676574 6255.548587 C 15375.676574 5928.960914 15111.03323 5664.317571 14784.445558 5664.317571 C 14457.857886 5664.317571 14193.214542 5928.960914 14193.214542 6255.548587 C 14193.214542 6582.136259 14457.857886 6846.93293 14784.445558 6846.93293 C 15111.03323 6846.93293 15375.676574 6582.136259 15375.676574 6255.548587 Z M 15375.676574 6255.548587 " stroke="rgb(1.959229%, 0.779724%, 0%)" stroke-width="149.669998" stroke-opacity="1" stroke-miterlimit="10"/><path fill="rgb(92.939758%, 91.369629%, 65.879822%)" d="M 959.410156 625.230469 C 959.410156 640.886719 946.714844 653.582031 931.058594 653.582031 C 915.398438 653.582031 902.707031 640.886719 902.707031 625.230469 C 902.707031 609.574219 915.398438 596.882812 931.058594 596.882812 C 946.714844 596.882812 959.410156 609.574219 959.410156 625.230469 " fill-opacity="1" fill-rule="nonzero"/><path stroke-linecap="round" transform="matrix(0.050953, 0, 0, -0.050953, 179.5669, 945.789812)" fill="none" stroke-linejoin="round" d="M 15305.145903 6291.273905 C 15305.145903 5984.005503 15055.988641 5734.848242 14748.72024 5734.848242 C 14441.375175 5734.848242 14192.294577 5984.005503 14192.294577 6291.273905 C 14192.294577 6598.542306 14441.375175 6847.622904 14748.72024 6847.622904 C 15055.988641 6847.622904 15305.145903 6598.542306 15305.145903 6291.273905 Z M 15305.145903 6291.273905 " stroke="rgb(1.959229%, 0.779724%, 0%)" stroke-width="149.669998" stroke-opacity="1" stroke-miterlimit="10"/><path fill="rgb(85.879517%, 84.309387%, 53.329468%)" d="M 1019.601562 583.648438 C 1019.601562 591.417969 1013.304688 597.71875 1005.53125 597.71875 C 997.761719 597.71875 991.460938 591.417969 991.460938 583.648438 C 991.460938 575.878906 997.761719 569.582031 1005.53125 569.582031 C 1013.304688 569.582031 1019.601562 575.878906 1019.601562 583.648438 " fill-opacity="1" fill-rule="nonzero"/><path stroke-linecap="round" transform="matrix(0.0515339, 0, 0, -0.0515339, 179.5669, 945.789812)" fill="none" stroke-linejoin="round" d="M 16300.023487 7026.945538 C 16300.023487 6876.180029 16177.834447 6753.91519 16026.993139 6753.91519 C 15876.15183 6753.91519 15753.886991 6876.180029 15753.886991 7026.945538 C 15753.886991 7177.711047 15876.15183 7299.900087 16026.993139 7299.900087 C 16177.834447 7299.900087 16300.023487 7177.711047 16300.023487 7026.945538 Z M 16300.023487 7026.945538 " stroke="rgb(1.959229%, 0.779724%, 0%)" stroke-width="147.977997" stroke-opacity="1" stroke-miterlimit="10"/><path fill="rgb(92.939758%, 91.369629%, 65.879822%)" d="M 1017.917969 582.804688 C 1017.917969 590.113281 1011.992188 596.042969 1004.675781 596.042969 C 997.367188 596.042969 991.4375 590.113281 991.4375 582.804688 C 991.4375 575.496094 997.367188 569.5625 1004.675781 569.5625 C 1011.992188 569.5625 1017.917969 575.496094 1017.917969 582.804688 " fill-opacity="1" fill-rule="nonzero"/><path stroke-linecap="round" transform="matrix(0.051432, 0, 0, -0.051432, 179.5669, 945.789812)" fill="none" stroke-linejoin="round" d="M 16300.041382 7057.501619 C 16300.041382 6915.399467 16184.825474 6800.107609 16042.571422 6800.107609 C 15900.469271 6800.107609 15785.177413 6915.399467 15785.177413 7057.501619 C 15785.177413 7199.60377 15900.469271 7314.971578 16042.571422 7314.971578 C 16184.825474 7314.971578 16300.041382 7199.60377 16300.041382 7057.501619 Z M 16300.041382 7057.501619 " stroke="rgb(1.959229%, 0.779724%, 0%)" stroke-width="148.274994" stroke-opacity="1" stroke-miterlimit="10"/><path fill="rgb(85.879517%, 84.309387%, 53.329468%)" d="M 456.167969 419.445312 C 456.167969 427.214844 449.871094 433.511719 442.101562 433.511719 C 434.328125 433.511719 428.03125 427.214844 428.03125 419.445312 C 428.03125 411.675781 434.328125 405.371094 442.101562 405.371094 C 449.871094 405.371094 456.167969 411.675781 456.167969 419.445312 " fill-opacity="1" fill-rule="nonzero"/><path stroke-linecap="round" transform="matrix(0.050953, 0, 0, -0.050953, 179.5669, 945.789812)" fill="none" stroke-linejoin="round" d="M 5428.552054 10329.998119 C 5428.552054 10177.513875 5304.970052 10053.931873 5152.485808 10053.931873 C 4999.9249 10053.931873 4876.342898 10177.513875 4876.342898 10329.998119 C 4876.342898 10482.482363 4999.9249 10606.217693 5152.485808 10606.217693 C 5304.970052 10606.217693 5428.552054 10482.482363 5428.552054 10329.998119 Z M 5428.552054 10329.998119 " stroke="rgb(1.959229%, 0.779724%, 0%)" stroke-width="149.669998" stroke-opacity="1" stroke-miterlimit="10"/><path fill="rgb(92.939758%, 91.369629%, 65.879822%)" d="M 454.488281 418.59375 C 454.488281 425.90625 448.566406 431.832031 441.25 431.832031 C 433.941406 431.832031 428.015625 425.90625 428.015625 418.59375 C 428.015625 411.28125 433.941406 405.359375 441.25 405.359375 C 448.566406 405.359375 454.488281 411.28125 454.488281 418.59375 " fill-opacity="1" fill-rule="nonzero"/><path stroke-linecap="round" transform="matrix(0.050953, 0, 0, -0.050953, 179.5669, 945.789812)" fill="none" stroke-linejoin="round" d="M 5395.586631 10346.710822 C 5395.586631 10203.196239 5279.364352 10086.897296 5135.773105 10086.897296 C 4992.335186 10086.897296 4876.036243 10203.196239 4876.036243 10346.710822 C 4876.036243 10490.225404 4992.335186 10606.447684 5135.773105 10606.447684 C 5279.364352 10606.447684 5395.586631 10490.225404 5395.586631 10346.710822 Z M 5395.586631 10346.710822 " stroke="rgb(1.959229%, 0.779724%, 0%)" stroke-width="149.669998" stroke-opacity="1" stroke-miterlimit="10"/><path fill="rgb(85.879517%, 84.309387%, 53.329468%)" d="M 601.410156 405.015625 C 601.410156 412.78125 595.109375 419.082031 587.339844 419.082031 C 579.570312 419.082031 573.269531 412.78125 573.269531 405.015625 C 573.269531 397.246094 579.570312 390.941406 587.339844 390.941406 C 595.109375 390.941406 601.410156 397.246094 601.410156 405.015625 " fill-opacity="1" fill-rule="nonzero"/><path stroke-linecap="round" transform="matrix(0.050953, 0, 0, -0.050953, 179.5669, 945.789812)" fill="none" stroke-linejoin="round" d="M 8279.064454 10613.194096 C 8279.064454 10460.786516 8155.405788 10337.12785 8002.921544 10337.12785 C 7850.4373 10337.12785 7726.778635 10460.786516 7726.778635 10613.194096 C 7726.778635 10765.67834 7850.4373 10889.413669 8002.921544 10889.413669 C 8155.405788 10889.413669 8279.064454 10765.67834 8279.064454 10613.194096 Z M 8279.064454 10613.194096 " stroke="rgb(1.959229%, 0.779724%, 0%)" stroke-width="149.669998" stroke-opacity="1" stroke-miterlimit="10"/><path fill="rgb(85.879517%, 84.309387%, 53.329468%)" d="M 734.089844 730.015625 C 734.089844 737.78125 727.792969 744.082031 720.015625 744.082031 C 712.25 744.082031 705.953125 737.78125 705.953125 730.015625 C 705.953125 722.242188 712.25 715.945312 720.015625 715.945312 C 727.792969 715.945312 734.089844 722.242188 734.089844 730.015625 " fill-opacity="1" fill-rule="nonzero"/><path stroke-linecap="round" transform="matrix(0.050953, 0, 0, -0.050953, 179.5669, 945.789812)" fill="none" stroke-linejoin="round" d="M 10883.026161 4234.768199 C 10883.026161 4082.360619 10759.444159 3958.701954 10606.806587 3958.701954 C 10454.399007 3958.701954 10330.817005 4082.360619 10330.817005 4234.768199 C 10330.817005 4387.329107 10454.399007 4510.911109 10606.806587 4510.911109 C 10759.444159 4510.911109 10883.026161 4387.329107 10883.026161 4234.768199 Z M 10883.026161 4234.768199 " stroke="rgb(1.959229%, 0.779724%, 0%)" stroke-width="149.669998" stroke-opacity="1" stroke-miterlimit="10"/><path fill="rgb(92.939758%, 91.369629%, 65.879822%)" d="M 732.40625 729.164062 C 732.40625 736.472656 726.480469 742.40625 719.167969 742.40625 C 711.859375 742.40625 705.929688 736.472656 705.929688 729.164062 C 705.929688 721.855469 711.859375 715.925781 719.167969 715.925781 C 726.480469 715.925781 732.40625 721.855469 732.40625 729.164062 " fill-opacity="1" fill-rule="nonzero"/><path stroke-linecap="round" transform="matrix(0.050953, 0, 0, -0.050953, 179.5669, 945.789812)" fill="none" stroke-linejoin="round" d="M 10849.984074 4251.480902 C 10849.984074 4108.042983 10733.685131 3991.590712 10590.170548 3991.590712 C 10446.73263 3991.590712 10330.357022 4108.042983 10330.357022 4251.480902 C 10330.357022 4394.918821 10446.73263 4511.294428 10590.170548 4511.294428 C 10733.685131 4511.294428 10849.984074 4394.918821 10849.984074 4251.480902 Z M 10849.984074 4251.480902 " stroke="rgb(1.959229%, 0.779724%, 0%)" stroke-width="149.669998" stroke-opacity="1" stroke-miterlimit="10"/></svg>